<?xml version="1.0" encoding="utf-8"?>
<!-- Generator: Adobe Illustrator 24.0.0, SVG Export Plug-In . SVG Version: 6.00 Build 0)  -->
<svg version="1.1" id="Layer_1" xmlns="http://www.w3.org/2000/svg" xmlns:xlink="http://www.w3.org/1999/xlink" x="0px" y="0px"
	 viewBox="0 0 299 78" style="enable-background:new 0 0 299 78;" xml:space="preserve">
<style type="text/css">
	.st0{fill:#FFFFFF;stroke:#000000;stroke-miterlimit:10;}
	.st1{fill:#FFFFFF;}
</style>
<path class="st0" d="M-273.6,3.9h15.9V76h-15.9V47h-29.3V76h-15.9V3.9h15.9v28.5h29.3L-273.6,3.9L-273.6,3.9z M-203,38.4
	c1.1,3.6,1.6,7.4,1.6,11.3c0,0.6,0,1.3-0.1,2c0,0.7-0.1,1.4-0.2,2.2H-240c0.8,3.6,2.3,6.3,4.7,8.1c2.4,1.8,5.3,2.7,8.8,2.7
	c2.6,0,4.9-0.4,7-1.3c2.1-0.9,4.2-2.3,6.4-4.3l9,7.9c-2.6,3.2-5.8,5.8-9.5,7.6c-3.7,1.8-8.1,2.7-13.1,2.7c-4.1,0-7.9-0.7-11.5-2.1
	c-3.5-1.4-6.6-3.3-9.2-5.9c-2.6-2.5-4.6-5.5-6-9c-1.4-3.5-2.2-7.3-2.2-11.6v-0.2c0-3.9,0.7-7.6,2-11.1s3.2-6.6,5.6-9.2
	c2.4-2.6,5.3-4.7,8.6-6.2c3.3-1.5,7-2.3,11.1-2.3c4.6,0,8.6,0.8,11.9,2.5c3.4,1.6,6.2,3.9,8.4,6.6C-205.7,31.6-204,34.8-203,38.4z
	 M-216.6,44c-0.5-3.5-1.7-6.3-3.7-8.5c-2-2.2-4.6-3.2-7.9-3.2c-3.3,0-6,1.1-8,3.2c-2,2.1-3.3,5-4,8.5H-216.6z M-161.9,48
	c-1.6-1.2-3.4-2.3-5.4-3.1c-2-0.9-3.9-1.6-5.9-2.2c-1.5-0.5-2.9-1-4.3-1.4c-1.3-0.5-2.5-1-3.6-1.5c-1-0.5-1.9-1.1-2.5-1.6
	c-0.6-0.6-0.9-1.3-0.9-2v-0.2c0-1.1,0.5-2,1.4-2.7c1-0.7,2.4-1.1,4.3-1.1c2,0,4.3,0.5,6.9,1.4c2.6,0.9,5.3,2.2,8,3.8l6-10.8
	c-3-2-6.3-3.6-9.9-4.7c-3.6-1.1-7.2-1.7-10.7-1.7c-2.8,0-5.4,0.4-7.9,1.1c-2.4,0.8-4.6,1.9-6.4,3.4c-1.8,1.5-3.3,3.3-4.3,5.5
	c-1.1,2.2-1.6,4.7-1.6,7.5v0.2c0,2.7,0.5,4.9,1.5,6.8c1,1.9,2.3,3.4,3.9,4.7c1.6,1.3,3.3,2.3,5.3,3.1c2,0.8,3.9,1.5,5.8,2
	c1.5,0.5,3,0.9,4.3,1.3c1.4,0.4,2.6,0.8,3.7,1.3c1.1,0.4,1.9,1,2.5,1.6s0.9,1.3,0.9,2.2v0.2c0,1.2-0.5,2.2-1.6,3
	c-1.1,0.8-2.7,1.1-5,1.1c-2.6,0-5.4-0.5-8.4-1.6c-3-1.1-6-2.7-9-4.9l-6.7,10.3c3.7,2.9,7.6,5,11.7,6.3c4.1,1.3,8.1,2,12,2
	c3,0,5.7-0.4,8.3-1.1c2.6-0.7,4.8-1.8,6.7-3.2c1.9-1.4,3.4-3.3,4.5-5.5c1.1-2.2,1.6-4.9,1.6-8V59c0-2.5-0.5-4.7-1.5-6.5
	C-159,50.7-160.4,49.2-161.9,48z M-102.6,38.4c1.1,3.6,1.6,7.4,1.6,11.3c0,0.6,0,1.3-0.1,2c0,0.7-0.1,1.4-0.2,2.2h-38.4
	c0.8,3.6,2.3,6.3,4.7,8.1c2.4,1.8,5.3,2.7,8.8,2.7c2.6,0,4.9-0.4,7-1.3c2.1-0.9,4.2-2.3,6.4-4.3l9,7.9c-2.6,3.2-5.8,5.8-9.5,7.6
	c-3.7,1.8-8.1,2.7-13.1,2.7c-4.1,0-7.9-0.7-11.5-2.1c-3.5-1.4-6.6-3.3-9.2-5.9c-2.6-2.5-4.6-5.5-6-9c-1.4-3.5-2.2-7.3-2.2-11.6v-0.2
	c0-3.9,0.7-7.6,2-11.1c1.3-3.5,3.2-6.6,5.6-9.2c2.4-2.6,5.3-4.7,8.6-6.2c3.3-1.5,7-2.3,11.1-2.3c4.6,0,8.6,0.8,11.9,2.5
	c3.4,1.6,6.2,3.9,8.4,6.6C-105.3,31.6-103.6,34.8-102.6,38.4z M-116.2,44c-0.5-3.5-1.7-6.3-3.7-8.5c-2-2.2-4.6-3.2-7.9-3.2
	s-6,1.1-8,3.2c-2,2.1-3.3,5-4,8.5H-116.2z M-56.7,0.8H-41V76h-15.7V68c-1.9,2.6-4.2,4.8-7,6.4c-2.7,1.7-6.1,2.5-10.2,2.5
	c-3.2,0-6.4-0.6-9.4-1.9c-3-1.2-5.7-3.1-8-5.5c-2.3-2.4-4.2-5.4-5.6-9c-1.4-3.5-2.1-7.6-2.1-12.2v-0.2c0-4.6,0.7-8.7,2.1-12.2
	c1.4-3.5,3.3-6.5,5.6-9c2.3-2.4,5-4.3,8-5.5c3-1.2,6.2-1.9,9.5-1.9c4.2,0,7.6,0.8,10.4,2.5c2.7,1.6,5,3.6,6.8,5.8L-56.7,0.8
	L-56.7,0.8z M-56.5,48.3c0-2.3-0.4-4.3-1.1-6.2c-0.7-1.9-1.7-3.5-2.9-4.8c-1.2-1.3-2.6-2.4-4.2-3.1c-1.6-0.7-3.3-1.1-5.2-1.1
	c-1.9,0-3.6,0.4-5.2,1.1c-1.6,0.7-3,1.8-4.3,3.1c-1.2,1.3-2.2,2.9-2.9,4.8c-0.7,1.9-1.1,3.9-1.1,6.3v0.2c0,2.3,0.4,4.3,1.1,6.2
	c0.7,1.9,1.7,3.5,2.9,4.8s2.7,2.4,4.3,3.1c1.6,0.7,3.3,1.1,5.2,1.1c1.9,0,3.6-0.4,5.2-1.1c1.6-0.7,3-1.8,4.2-3.1
	c1.2-1.3,2.2-3,2.9-4.8c0.7-1.9,1.1-4,1.1-6.2V48.3z M-36.9,59.5V76h16.6V59.5H-36.9z"/>
<g>
	<path class="st1" d="M1.7,6c0.6,0,1.4,0,2.4,0.1s2,0,3,0c1.1,0,2.1,0,3.1,0c1,0,1.7,0,2.1,0c3.2,0,5.6,0.6,7.2,1.8
		c1.6,1.2,2.4,2.8,2.4,4.7c0,0.8-0.2,1.6-0.5,2.5c-0.3,0.9-0.9,1.7-1.6,2.4c-0.8,0.7-1.8,1.3-3.1,1.8s-3,0.7-5,0.7H8.1v-0.7h3.1
		c1.2,0,2.1-0.3,2.8-0.9c0.6-0.6,1.1-1.4,1.3-2.3s0.3-2,0.3-3.1c0-2.1-0.3-3.6-0.8-4.7c-0.5-1-1.5-1.5-2.8-1.5
		c-0.8,0-1.3,0.2-1.6,0.6c-0.2,0.4-0.3,1.1-0.3,2.3v16.1c0,0.9,0.1,1.5,0.3,2c0.2,0.4,0.5,0.7,1.1,0.8c0.5,0.1,1.3,0.2,2.3,0.2v0.7
		c-0.7,0-1.7,0-2.8-0.1c-1.1,0-2.3,0-3.6,0c-1,0-2,0-2.9,0c-1,0-1.8,0-2.7,0.1v-0.7c0.7,0,1.2-0.1,1.5-0.3c0.3-0.1,0.6-0.4,0.7-0.8
		s0.2-1,0.2-1.8V9.5c0-0.8-0.1-1.4-0.2-1.8C3.8,7.3,3.6,7.1,3.2,6.9C2.9,6.8,2.4,6.7,1.7,6.7V6z"/>
	<path class="st1" d="M31.4,11.8c1.6,0,3.1,0.3,4.3,0.9c1.2,0.6,2.2,1.5,2.9,2.8c0.7,1.3,1,3.1,1,5.3c0,2.2-0.3,4-1,5.3
		s-1.7,2.3-2.9,2.8c-1.2,0.6-2.7,0.9-4.3,0.9c-1.6,0-3.1-0.3-4.3-0.9c-1.2-0.6-2.2-1.5-2.9-2.8c-0.7-1.3-1.1-3.1-1.1-5.3
		c0-2.2,0.4-4,1.1-5.3c0.7-1.3,1.7-2.3,2.9-2.8S29.8,11.8,31.4,11.8z M31.4,12.5c-0.8,0-1.4,0.7-1.9,2c-0.5,1.3-0.8,3.4-0.8,6.4
		c0,2.9,0.3,5.1,0.8,6.4c0.5,1.3,1.2,2,1.9,2c0.8,0,1.4-0.7,1.9-2c0.5-1.3,0.8-3.4,0.8-6.4c0-2.9-0.3-5.1-0.8-6.4
		C32.8,13.1,32.2,12.5,31.4,12.5z"/>
	<path class="st1" d="M49.6,12.3V13c-0.5,0-0.9,0-1.2,0.1c-0.3,0.1-0.6,0.2-0.7,0.4c-0.1,0.2-0.1,0.6,0,1.1l3,9.8l-0.5,0.6l3.5-12.6
		l0.7,0.3l-4.7,16.8c-0.4,0-0.9-0.1-1.3-0.1c-0.5,0-0.9,0-1.3,0.1l-5.1-14.6c-0.3-0.9-0.6-1.4-1-1.6C40.6,13.1,40.3,13,40,13v-0.7
		c0.8,0.1,1.6,0.1,2.5,0.1c0.9,0,1.8,0,2.8,0c0.7,0,1.4,0,2.2-0.1C48.2,12.4,48.9,12.3,49.6,12.3z M66.4,12.3V13
		c-0.4,0.1-0.8,0.4-1.2,0.8c-0.4,0.4-0.8,1.1-1.1,2.2l-4.2,13.4c-0.4,0-0.9-0.1-1.3-0.1c-0.4,0-0.9,0-1.3,0.1L52.8,17l0.9-4.7
		c0.5,0,1,0,1.5,0c0.5,0,1,0,1.5,0L61,25.5l-0.4-0.6l1.9-6c0.4-1.4,0.6-2.5,0.5-3.3c-0.1-0.9-0.4-1.5-0.9-1.9
		c-0.5-0.4-1.1-0.7-1.8-0.7v-0.7c0.3,0,0.7,0,1.2,0.1s0.9,0,1.3,0c0.4,0,0.8,0,1.1,0c0.4,0,0.9,0,1.4,0
		C65.8,12.4,66.2,12.3,66.4,12.3z"/>
	<path class="st1" d="M75.2,11.8c1.9,0,3.4,0.6,4.5,1.7s1.6,3,1.6,5.6H70.8l0-0.6h6.1c0-1.1,0-2.1-0.1-3c-0.1-0.9-0.3-1.6-0.6-2.2
		c-0.3-0.5-0.7-0.8-1.2-0.8c-0.7,0-1.2,0.5-1.7,1.4c-0.5,0.9-0.7,2.5-0.9,4.8l0.1,0.2c0,0.2-0.1,0.5-0.1,0.7c0,0.3,0,0.5,0,0.8
		c0,1.5,0.2,2.7,0.6,3.6c0.4,0.9,0.9,1.5,1.5,1.9c0.6,0.4,1.3,0.6,1.9,0.6c0.4,0,0.8-0.1,1.3-0.2c0.5-0.1,0.9-0.3,1.4-0.7
		c0.5-0.4,1-0.9,1.4-1.5l0.6,0.2C81,25.3,80.6,26.1,80,27c-0.6,0.8-1.3,1.5-2.2,2c-0.9,0.5-2,0.8-3.3,0.8c-1.4,0-2.7-0.3-3.9-0.9
		s-2-1.6-2.7-2.9c-0.7-1.3-1-3-1-5.1c0-2.1,0.4-3.8,1.1-5.1c0.7-1.3,1.7-2.3,3-3C72.2,12.1,73.6,11.8,75.2,11.8z"/>
	<path class="st1" d="M94.6,11.8c0.7,0,1.3,0.2,1.8,0.5s0.8,0.7,1,1.2s0.3,1,0.3,1.5c0,0.9-0.3,1.6-0.8,2.2c-0.5,0.5-1.2,0.8-2,0.8
		c-0.9,0-1.5-0.2-2-0.6c-0.5-0.4-0.7-0.9-0.7-1.6c0-0.7,0.1-1.2,0.4-1.7c0.3-0.4,0.7-0.8,1.1-1.1c-0.3,0-0.6,0-1,0.1
		c-0.3,0.1-0.7,0.3-1,0.5c-0.3,0.2-0.6,0.5-0.8,0.9s-0.4,0.7-0.5,1.1c-0.1,0.4-0.2,0.8-0.2,1.2v9.3c0,1.1,0.2,1.8,0.7,2.1
		c0.5,0.4,1.2,0.6,2.3,0.6v0.7c-0.5,0-1.3,0-2.2-0.1c-1,0-2,0-3.1,0c-0.9,0-1.9,0-2.8,0c-1,0-1.7,0.1-2.1,0.1v-0.7
		c0.7,0,1.2-0.2,1.5-0.5s0.4-1,0.4-1.9V15.9c0-1-0.1-1.7-0.4-2.2c-0.3-0.5-0.8-0.7-1.5-0.7v-0.7c0.7,0.1,1.4,0.1,2,0.1
		c1,0,1.9,0,2.8-0.1c0.9-0.1,1.7-0.2,2.5-0.3v2.7c0.3-0.6,0.6-1.1,1-1.5s0.9-0.7,1.5-1C93.3,11.9,93.9,11.8,94.6,11.8z"/>
	<path class="st1" d="M104.8,3.6v22.7c0,0.9,0.1,1.5,0.4,1.9s0.8,0.5,1.5,0.5v0.7c-0.4,0-1.1,0-1.9-0.1c-0.9,0-1.7,0-2.6,0
		c-0.9,0-1.8,0-2.7,0c-0.9,0-1.6,0.1-2.1,0.1v-0.7c0.7,0,1.2-0.2,1.5-0.5c0.3-0.3,0.4-1,0.4-1.9V7.5c0-1-0.1-1.7-0.4-2.2
		c-0.3-0.5-0.8-0.7-1.6-0.7V4c0.7,0.1,1.4,0.1,2,0.1c1,0,2,0,2.8-0.1C103.2,3.9,104,3.7,104.8,3.6z"/>
	<path class="st1" d="M115.4,11.9v14.4c0,0.9,0.1,1.5,0.4,1.9s0.8,0.5,1.5,0.5v0.7c-0.4,0-1.1,0-1.9-0.1c-0.9,0-1.7,0-2.6,0
		c-0.9,0-1.8,0-2.7,0c-0.9,0-1.6,0.1-2.1,0.1v-0.7c0.7,0,1.2-0.2,1.5-0.5s0.4-1,0.4-1.9V15.9c0-1-0.1-1.7-0.4-2.2
		c-0.3-0.5-0.8-0.7-1.6-0.7v-0.7c0.7,0.1,1.4,0.1,2,0.1c1,0,1.9,0,2.8-0.1C113.9,12.2,114.7,12.1,115.4,11.9z M112.5,3.7
		c1,0,1.8,0.2,2.4,0.7c0.6,0.5,0.9,1.1,0.9,2c0,0.9-0.3,1.5-0.9,2c-0.6,0.5-1.4,0.7-2.4,0.7s-1.8-0.2-2.4-0.7s-0.9-1.1-0.9-2
		c0-0.9,0.3-1.5,0.9-2S111.5,3.7,112.5,3.7z"/>
	<path class="st1" d="M127.6,3.6c0.8,0,1.6,0.1,2.2,0.3c0.6,0.2,1.1,0.5,1.6,0.8c0.3,0.2,0.6,0.6,0.8,1c0.2,0.5,0.3,1,0.3,1.6
		c0,0.6-0.2,1.2-0.7,1.7c-0.5,0.5-1.1,0.8-1.8,0.8c-0.8,0-1.5-0.2-2-0.7c-0.5-0.4-0.8-1.1-0.8-1.9c0-0.6,0.2-1.1,0.5-1.6
		c0.3-0.5,0.9-0.8,1.6-1c-0.1-0.1-0.2-0.2-0.4-0.3c-0.2-0.1-0.4-0.1-0.7-0.1c-0.4,0-0.7,0.1-1,0.2s-0.5,0.3-0.7,0.6
		c-0.2,0.3-0.4,0.7-0.5,1.2c-0.1,0.5-0.1,1.3-0.1,2.4v3.7h3.5V13H126v13c0,1.1,0.3,1.8,0.8,2.2c0.5,0.4,1.3,0.5,2.2,0.5v0.7
		c-0.6,0-1.4,0-2.5-0.1c-1.1,0-2.2,0-3.4,0c-0.9,0-1.7,0-2.5,0c-0.8,0-1.5,0.1-1.9,0.1v-0.7c0.7,0,1.2-0.2,1.5-0.5
		c0.3-0.3,0.4-1,0.4-1.9V13h-2.1v-0.7h2.1c0-1.3,0.1-2.4,0.2-3.2c0.1-0.9,0.4-1.6,0.7-2.2c0.3-0.6,0.8-1.1,1.3-1.6
		c0.5-0.5,1.1-0.9,2-1.2C125.7,3.8,126.6,3.6,127.6,3.6z"/>
	<path class="st1" d="M138.5,11.8c1.9,0,3.4,0.6,4.5,1.7c1.1,1.1,1.6,3,1.6,5.6h-10.6l0-0.6h6.1c0-1.1,0-2.1-0.1-3
		c-0.1-0.9-0.3-1.6-0.6-2.2c-0.3-0.5-0.7-0.8-1.2-0.8c-0.7,0-1.2,0.5-1.7,1.4c-0.5,0.9-0.7,2.5-0.9,4.8l0.1,0.2
		c0,0.2-0.1,0.5-0.1,0.7c0,0.3,0,0.5,0,0.8c0,1.5,0.2,2.7,0.6,3.6s0.9,1.5,1.5,1.9c0.6,0.4,1.3,0.6,1.9,0.6c0.4,0,0.8-0.1,1.3-0.2
		c0.5-0.1,0.9-0.3,1.4-0.7c0.5-0.4,1-0.9,1.4-1.5l0.6,0.2c-0.2,0.9-0.7,1.7-1.2,2.5c-0.6,0.8-1.3,1.5-2.2,2s-2,0.8-3.3,0.8
		c-1.4,0-2.7-0.3-3.9-0.9c-1.1-0.6-2-1.6-2.7-2.9c-0.7-1.3-1-3-1-5.1c0-2.1,0.4-3.8,1.1-5.1c0.7-1.3,1.7-2.3,3-3
		C135.6,12.1,137,11.8,138.5,11.8z"/>
	<path class="st1" d="M166.6,5.6c1.4,0,2.6,0.2,3.6,0.6c0.9,0.4,1.8,0.9,2.5,1.5c0.4,0.3,0.8,0.4,1,0.1c0.2-0.3,0.4-0.9,0.5-1.8h0.8
		c0,0.9-0.1,1.9-0.1,3.2s0,2.9,0,4.9H174c-0.1-1-0.2-1.9-0.4-2.7c-0.2-0.8-0.5-1.4-0.8-2c-0.4-0.6-0.9-1.1-1.5-1.6
		c-0.5-0.4-1.1-0.7-1.7-1c-0.6-0.2-1.3-0.3-1.9-0.3c-1.2,0-2.2,0.3-3,1c-0.8,0.7-1.5,1.5-2,2.6s-0.8,2.3-1.1,3.6
		c-0.2,1.3-0.3,2.7-0.3,4c0,1.4,0.1,2.7,0.3,4c0.2,1.3,0.6,2.5,1.1,3.6c0.5,1.1,1.2,1.9,2,2.6c0.8,0.6,1.9,1,3.1,1
		c0.6,0,1.3-0.1,1.9-0.3c0.6-0.2,1.2-0.5,1.7-1c1-0.7,1.6-1.5,2-2.6c0.3-1.1,0.6-2.5,0.7-4.2h0.8c0,2.1,0,3.8,0,5.2s0.1,2.4,0.1,3.3
		h-0.8c-0.1-0.9-0.2-1.5-0.4-1.8c-0.2-0.2-0.6-0.2-1,0.1c-0.8,0.6-1.7,1.1-2.6,1.5c-0.9,0.4-2.1,0.6-3.5,0.6c-2.4,0-4.5-0.5-6.3-1.4
		c-1.8-0.9-3.2-2.3-4.2-4.1c-1-1.8-1.5-3.9-1.5-6.4c0-2.5,0.5-4.6,1.5-6.5c1-1.8,2.5-3.3,4.3-4.3C162.2,6.1,164.2,5.6,166.6,5.6z"/>
	<path class="st1" d="M184.6,3.6v11c0.5-1,1.3-1.7,2.2-2.1c0.9-0.4,2-0.6,3.1-0.6c1,0,1.7,0.1,2.3,0.4c0.6,0.2,1,0.5,1.3,0.9
		c0.3,0.4,0.6,1,0.8,1.6s0.2,1.5,0.2,2.7v8.9c0,0.9,0.1,1.5,0.4,1.9c0.3,0.3,0.8,0.5,1.5,0.5v0.7c-0.4,0-1.1,0-1.9-0.1
		c-0.9,0-1.7,0-2.6,0c-0.9,0-1.7,0-2.6,0c-0.8,0-1.5,0.1-1.9,0.1v-0.7c0.6,0,1-0.2,1.3-0.5s0.4-1,0.4-1.9V15.8
		c0-0.5-0.1-0.9-0.2-1.3c-0.1-0.4-0.3-0.6-0.5-0.8c-0.3-0.2-0.6-0.3-1.1-0.3c-0.5,0-1,0.1-1.4,0.4c-0.4,0.3-0.8,0.6-1,1.1
		c-0.3,0.5-0.4,1-0.4,1.6v9.8c0,0.9,0.1,1.5,0.4,1.9s0.7,0.5,1.3,0.5v0.7c-0.4,0-1,0-1.8-0.1c-0.8,0-1.6,0-2.4,0c-0.9,0-1.8,0-2.7,0
		c-0.9,0-1.6,0.1-2.1,0.1v-0.7c0.7,0,1.2-0.2,1.5-0.5s0.4-1,0.4-1.9V7.5c0-1-0.1-1.7-0.4-2.2c-0.3-0.5-0.8-0.7-1.6-0.7V4
		c0.7,0.1,1.4,0.1,2,0.1c1,0,2,0,2.8-0.1C183,3.9,183.8,3.7,184.6,3.6z"/>
	<path class="st1" d="M209.3,11.8c0.7,0,1.3,0.2,1.8,0.5s0.8,0.7,1,1.2s0.3,1,0.3,1.5c0,0.9-0.3,1.6-0.8,2.2c-0.5,0.5-1.2,0.8-2,0.8
		c-0.9,0-1.5-0.2-2-0.6c-0.5-0.4-0.7-0.9-0.7-1.6c0-0.7,0.1-1.2,0.4-1.7c0.3-0.4,0.7-0.8,1.1-1.1c-0.3,0-0.6,0-1,0.1
		c-0.3,0.1-0.7,0.3-1,0.5c-0.3,0.2-0.6,0.5-0.8,0.9s-0.4,0.7-0.5,1.1c-0.1,0.4-0.2,0.8-0.2,1.2v9.3c0,1.1,0.2,1.8,0.7,2.1
		c0.5,0.4,1.2,0.6,2.3,0.6v0.7c-0.5,0-1.3,0-2.2-0.1c-1,0-2,0-3.1,0c-0.9,0-1.9,0-2.8,0c-1,0-1.7,0.1-2.1,0.1v-0.7
		c0.7,0,1.2-0.2,1.5-0.5s0.4-1,0.4-1.9V15.9c0-1-0.1-1.7-0.4-2.2c-0.3-0.5-0.8-0.7-1.5-0.7v-0.7c0.7,0.1,1.4,0.1,2,0.1
		c1,0,1.9,0,2.8-0.1c0.9-0.1,1.7-0.2,2.5-0.3v2.7c0.3-0.6,0.6-1.1,1-1.5s0.9-0.7,1.5-1C208,11.9,208.7,11.8,209.3,11.8z"/>
	<path class="st1" d="M220.6,11.9v14.4c0,0.9,0.1,1.5,0.4,1.9c0.3,0.3,0.8,0.5,1.5,0.5v0.7c-0.4,0-1.1,0-1.9-0.1c-0.9,0-1.7,0-2.6,0
		s-1.8,0-2.7,0c-0.9,0-1.6,0.1-2.1,0.1v-0.7c0.7,0,1.2-0.2,1.5-0.5c0.3-0.3,0.4-1,0.4-1.9V15.9c0-1-0.1-1.7-0.4-2.2
		c-0.3-0.5-0.8-0.7-1.6-0.7v-0.7c0.7,0.1,1.4,0.1,2,0.1c1,0,1.9,0,2.8-0.1C219,12.2,219.8,12.1,220.6,11.9z M217.7,3.7
		c1,0,1.8,0.2,2.4,0.7c0.6,0.5,0.9,1.1,0.9,2c0,0.9-0.3,1.5-0.9,2c-0.6,0.5-1.4,0.7-2.4,0.7c-1,0-1.8-0.2-2.4-0.7
		c-0.6-0.5-0.9-1.1-0.9-2c0-0.9,0.3-1.5,0.9-2C215.8,3.9,216.6,3.7,217.7,3.7z"/>
	<path class="st1" d="M230.6,11.8c1,0,1.8,0.1,2.5,0.3c0.7,0.2,1.2,0.4,1.5,0.6c0.8,0.5,1.2,0.2,1.4-0.9h0.7c0,0.6-0.1,1.4-0.1,2.3
		s0,2.1,0,3.6h-0.7c-0.1-0.8-0.3-1.6-0.6-2.4c-0.3-0.8-0.7-1.4-1.3-2c-0.6-0.5-1.3-0.8-2.2-0.8c-0.6,0-1.1,0.2-1.5,0.5
		c-0.4,0.4-0.6,0.8-0.6,1.4c0,0.7,0.2,1.2,0.6,1.7c0.4,0.5,0.9,1,1.5,1.4s1.3,1,1.9,1.5c0.7,0.5,1.3,1.1,1.9,1.6
		c0.6,0.5,1,1.1,1.3,1.7s0.5,1.4,0.5,2.3c0,1-0.3,1.9-0.9,2.6c-0.6,0.7-1.4,1.3-2.3,1.7c-1,0.4-2,0.6-3.2,0.6
		c-0.7,0-1.4-0.1-1.9-0.2c-0.5-0.1-1-0.3-1.3-0.5c-0.3-0.2-0.6-0.3-0.9-0.4c-0.3-0.1-0.5-0.2-0.7-0.2c-0.2,0-0.4,0.1-0.6,0.3
		c-0.2,0.2-0.3,0.5-0.4,0.9h-0.7c0-0.7,0.1-1.6,0.1-2.6c0-1,0-2.3,0-4h0.7c0.1,1.2,0.4,2.2,0.7,3.1c0.4,0.9,0.8,1.6,1.5,2.1
		c0.6,0.5,1.3,0.8,2.2,0.8c0.4,0,0.7-0.1,1-0.2s0.6-0.4,0.8-0.7c0.2-0.3,0.3-0.7,0.3-1.2c0-1-0.3-1.8-0.9-2.4
		c-0.6-0.6-1.4-1.4-2.3-2.1c-0.7-0.6-1.4-1.2-2-1.7c-0.6-0.6-1.1-1.2-1.5-1.9c-0.4-0.7-0.6-1.4-0.6-2.3c0-1,0.3-1.8,0.8-2.5
		c0.6-0.7,1.3-1.2,2.2-1.6C228.6,12,229.6,11.8,230.6,11.8z"/>
	<path class="st1" d="M246.4,6.9v5.4h3.6v0.7h-3.6v13.5c0,0.5,0.1,0.9,0.3,1.2s0.5,0.3,0.9,0.3c0.3,0,0.7-0.1,1-0.3
		c0.4-0.2,0.7-0.6,1-1.1l0.5,0.3c-0.4,0.9-1,1.6-1.7,2.2c-0.7,0.5-1.7,0.8-2.9,0.8c-0.7,0-1.4-0.1-1.9-0.3c-0.6-0.2-1-0.5-1.4-0.8
		c-0.5-0.5-0.8-1.1-0.9-1.8c-0.1-0.7-0.2-1.6-0.2-2.8V12.9h-2.6v-0.7h2.6V8.2c1,0,2-0.1,2.8-0.3C244.8,7.7,245.6,7.4,246.4,6.9z"/>
	<path class="st1" d="M258.1,11.9v14.4c0,0.9,0.1,1.5,0.4,1.9s0.8,0.5,1.5,0.5v0.7c-0.4,0-1.1,0-1.9-0.1c-0.9,0-1.7,0-2.6,0
		c-0.9,0-1.8,0-2.7,0c-0.9,0-1.6,0.1-2.1,0.1v-0.7c0.7,0,1.2-0.2,1.5-0.5s0.4-1,0.4-1.9V15.9c0-1-0.1-1.7-0.4-2.2
		c-0.3-0.5-0.8-0.7-1.6-0.7v-0.7c0.7,0.1,1.4,0.1,2,0.1c1,0,1.9,0,2.8-0.1C256.6,12.2,257.4,12.1,258.1,11.9z M255.2,3.7
		c1,0,1.8,0.2,2.4,0.7c0.6,0.5,0.9,1.1,0.9,2c0,0.9-0.3,1.5-0.9,2c-0.6,0.5-1.4,0.7-2.4,0.7s-1.8-0.2-2.4-0.7s-0.9-1.1-0.9-2
		c0-0.9,0.3-1.5,0.9-2S254.2,3.7,255.2,3.7z"/>
	<path class="st1" d="M265.9,29.6c-1,0-1.8-0.2-2.5-0.6s-1.1-0.9-1.4-1.5c-0.3-0.6-0.5-1.3-0.5-2c0-0.9,0.2-1.7,0.6-2.3
		c0.4-0.6,1-1.1,1.7-1.4c0.7-0.4,1.4-0.7,2.1-0.9c0.7-0.2,1.5-0.5,2.1-0.7c0.7-0.2,1.2-0.5,1.6-0.8c0.4-0.3,0.6-0.7,0.6-1.2v-2.7
		c0-0.5-0.1-0.9-0.2-1.4c-0.1-0.4-0.4-0.8-0.8-1.1c-0.4-0.3-0.9-0.4-1.5-0.4c-0.4,0-0.8,0.1-1.2,0.2c-0.4,0.1-0.7,0.3-1,0.5
		c0.7,0.2,1.2,0.6,1.6,1.1c0.3,0.5,0.5,1,0.5,1.6c0,0.8-0.3,1.5-0.8,1.9c-0.6,0.5-1.2,0.7-2,0.7c-0.8,0-1.5-0.3-1.9-0.8
		c-0.4-0.5-0.7-1.2-0.7-1.9c0-0.7,0.2-1.2,0.5-1.7c0.3-0.4,0.8-0.9,1.4-1.2c0.6-0.4,1.4-0.6,2.3-0.8c0.9-0.2,1.9-0.3,2.9-0.3
		c1,0,2,0.1,2.8,0.3c0.9,0.2,1.6,0.6,2.2,1.2c0.5,0.5,0.8,1.1,0.9,1.8c0.1,0.7,0.2,1.6,0.2,2.8v8.9c0,0.5,0.1,0.9,0.1,1.1
		c0.1,0.2,0.3,0.3,0.5,0.3c0.2,0,0.4-0.1,0.6-0.2s0.4-0.2,0.5-0.4l0.4,0.6c-0.5,0.4-1.1,0.7-1.7,0.9c-0.7,0.2-1.4,0.3-2.1,0.3
		c-0.9,0-1.6-0.1-2.1-0.3c-0.5-0.2-0.8-0.5-1.1-0.9c-0.2-0.4-0.3-0.8-0.3-1.3c-0.5,0.8-1.1,1.4-1.8,1.9
		C267.9,29.3,267,29.6,265.9,29.6z M268.7,27.2c0.4,0,0.7-0.1,0.9-0.2c0.3-0.1,0.5-0.4,0.8-0.7v-6.8c-0.2,0.3-0.4,0.6-0.7,0.9
		c-0.3,0.3-0.6,0.5-0.9,0.8c-0.3,0.3-0.6,0.6-0.9,0.9c-0.3,0.3-0.5,0.7-0.7,1.2c-0.2,0.4-0.3,1-0.3,1.6c0,0.9,0.2,1.5,0.5,1.8
		C267.7,27,268.1,27.2,268.7,27.2z"/>
	<path class="st1" d="M291.3,11.8c1,0,1.7,0.1,2.3,0.4s1,0.5,1.3,0.9c0.4,0.4,0.6,1,0.8,1.6s0.2,1.5,0.2,2.7v8.9
		c0,0.9,0.1,1.5,0.4,1.9s0.8,0.5,1.5,0.5v0.7c-0.4,0-1.1,0-2-0.1c-0.9,0-1.7,0-2.5,0c-0.9,0-1.8,0-2.6,0c-0.8,0-1.5,0.1-1.9,0.1
		v-0.7c0.6,0,1-0.2,1.3-0.5c0.2-0.3,0.4-1,0.4-1.9V15.8c0-0.5-0.1-0.9-0.2-1.3c-0.1-0.4-0.3-0.6-0.6-0.8c-0.3-0.2-0.6-0.3-1.1-0.3
		c-0.5,0-1,0.1-1.4,0.4c-0.4,0.3-0.8,0.6-1,1.1c-0.3,0.5-0.4,1-0.4,1.6v9.8c0,0.9,0.1,1.5,0.4,1.9c0.2,0.3,0.7,0.5,1.3,0.5v0.7
		c-0.4,0-1,0-1.8-0.1c-0.8,0-1.6,0-2.4,0c-0.9,0-1.8,0-2.7,0c-0.9,0-1.6,0.1-2,0.1v-0.7c0.7,0,1.2-0.2,1.5-0.5s0.4-1,0.4-1.9V15.9
		c0-1-0.1-1.7-0.4-2.2c-0.3-0.5-0.8-0.7-1.5-0.7v-0.7c0.7,0.1,1.4,0.1,2,0.1c1,0,1.9,0,2.8-0.1c0.9-0.1,1.7-0.2,2.5-0.3v2.7
		c0.5-1,1.2-1.7,2.2-2.1C289.1,12,290.1,11.8,291.3,11.8z"/>
	<path class="st1" d="M23.7,45.5c-0.1,1.1-0.1,2.1-0.2,3c0,1,0,1.7,0,2.2c0,0.5,0,0.9,0,1.3s0,0.8,0.1,1.1h-0.8
		c-0.3-1.8-0.8-3.1-1.4-4.2c-0.6-1-1.3-1.7-2-2.2c-0.8-0.4-1.6-0.6-2.5-0.6h-0.8c-0.6,0-1.1,0-1.4,0.1s-0.5,0.3-0.6,0.6
		c-0.1,0.3-0.1,0.8-0.1,1.4v16.6c0,0.9,0.1,1.5,0.3,1.9c0.2,0.4,0.5,0.7,1.1,0.9c0.5,0.1,1.3,0.2,2.3,0.2v0.7c-0.7,0-1.7,0-2.8-0.1
		c-1.1,0-2.3,0-3.6,0c-1,0-2,0-2.9,0c-1,0-1.8,0-2.7,0.1v-0.7c0.7,0,1.2-0.1,1.5-0.3s0.6-0.4,0.7-0.8c0.1-0.4,0.2-1,0.2-1.8V49
		c0-0.8-0.1-1.4-0.2-1.8s-0.4-0.6-0.7-0.8s-0.9-0.2-1.5-0.2v-0.7c0.9,0,1.9,0,3,0c1,0,2.1,0,3.1,0c1,0,2,0,2.9,0c0.9,0,1.6,0,2.2,0
		c1,0,2.2,0,3.4,0C21.5,45.6,22.7,45.6,23.7,45.5z M18.8,56.9v0.7H13v-0.7H18.8z M19.7,52.5c-0.1,1.3-0.1,2.2-0.1,2.9
		c0,0.7,0,1.3,0,1.8c0,0.5,0,1.2,0,1.8c0,0.7,0.1,1.6,0.2,2.9h-0.8c-0.1-0.8-0.4-1.5-0.7-2.2c-0.4-0.7-0.8-1.2-1.4-1.6
		c-0.6-0.4-1.3-0.6-2.2-0.6v-0.7c0.6,0,1.2-0.1,1.7-0.4s0.9-0.6,1.2-1.1c0.3-0.4,0.6-0.9,0.8-1.4c0.2-0.5,0.4-1,0.5-1.4H19.7z"/>
	<path class="st1" d="M29.2,69.1c-1,0-1.8-0.2-2.5-0.6s-1.1-0.9-1.4-1.5c-0.3-0.6-0.5-1.3-0.5-2c0-0.9,0.2-1.7,0.6-2.3
		c0.4-0.6,1-1.1,1.7-1.4s1.4-0.7,2.1-0.9c0.7-0.2,1.5-0.5,2.1-0.7s1.2-0.5,1.6-0.8c0.4-0.3,0.6-0.7,0.6-1.2v-2.7
		c0-0.5-0.1-0.9-0.2-1.4c-0.1-0.4-0.4-0.8-0.8-1.1S31.8,52,31.1,52c-0.4,0-0.8,0.1-1.2,0.2s-0.7,0.3-1,0.5c0.7,0.2,1.2,0.6,1.6,1.1
		c0.3,0.5,0.5,1,0.5,1.6c0,0.8-0.3,1.5-0.8,1.9c-0.6,0.5-1.2,0.7-2,0.7c-0.8,0-1.5-0.3-1.9-0.8c-0.5-0.5-0.7-1.2-0.7-1.9
		c0-0.7,0.2-1.2,0.5-1.7c0.3-0.5,0.8-0.9,1.4-1.2c0.6-0.4,1.4-0.6,2.3-0.8c0.9-0.2,1.9-0.3,2.9-0.3c1,0,2,0.1,2.8,0.3
		c0.9,0.2,1.6,0.6,2.2,1.2c0.5,0.5,0.8,1.1,0.9,1.8c0.1,0.7,0.2,1.6,0.2,2.8v8.9c0,0.5,0,0.9,0.1,1.1c0.1,0.2,0.3,0.3,0.5,0.3
		c0.2,0,0.4-0.1,0.6-0.2c0.2-0.1,0.3-0.2,0.5-0.4l0.4,0.6c-0.5,0.4-1.1,0.7-1.7,0.9c-0.7,0.2-1.4,0.3-2.1,0.3
		c-0.9,0-1.6-0.1-2.1-0.3s-0.8-0.5-1.1-0.9c-0.2-0.4-0.3-0.8-0.3-1.3c-0.5,0.8-1.1,1.4-1.8,1.9C31.2,68.8,30.3,69.1,29.2,69.1z
		 M31.9,66.7c0.3,0,0.7-0.1,0.9-0.2c0.3-0.1,0.5-0.4,0.8-0.7v-6.8c-0.2,0.3-0.4,0.6-0.7,0.9s-0.6,0.5-0.9,0.8
		c-0.3,0.3-0.6,0.6-0.9,0.9c-0.3,0.3-0.5,0.7-0.7,1.2c-0.2,0.5-0.3,1-0.3,1.6c0,0.9,0.2,1.5,0.5,1.8C30.9,66.5,31.3,66.7,31.9,66.7z
		"/>
	<path class="st1" d="M49.2,51.4v14.4c0,0.9,0.1,1.5,0.4,1.9c0.3,0.3,0.8,0.5,1.5,0.5v0.7c-0.4,0-1.1,0-1.9-0.1c-0.9,0-1.7,0-2.6,0
		c-0.9,0-1.8,0-2.7,0c-0.9,0-1.6,0.1-2.1,0.1v-0.7c0.7,0,1.2-0.2,1.5-0.5c0.3-0.3,0.4-1,0.4-1.9V55.4c0-1-0.1-1.7-0.4-2.2
		c-0.3-0.5-0.8-0.7-1.6-0.7v-0.7c0.7,0.1,1.4,0.1,2,0.1c1,0,1.9,0,2.8-0.1C47.7,51.7,48.5,51.6,49.2,51.4z M46.3,43.2
		c1,0,1.8,0.2,2.4,0.7c0.6,0.5,0.9,1.1,0.9,2s-0.3,1.5-0.9,2c-0.6,0.5-1.4,0.7-2.4,0.7s-1.8-0.2-2.4-0.7s-0.9-1.1-0.9-2
		s0.3-1.5,0.9-2S45.3,43.2,46.3,43.2z"/>
	<path class="st1" d="M59.7,46.4v5.4h3.6v0.7h-3.6v13.5c0,0.5,0.1,0.9,0.3,1.2c0.2,0.2,0.5,0.3,0.9,0.3c0.3,0,0.7-0.1,1-0.3
		c0.4-0.2,0.7-0.6,1-1.1l0.5,0.3c-0.4,0.9-1,1.6-1.7,2.2C61,69,60,69.3,58.9,69.3c-0.7,0-1.4-0.1-1.9-0.3c-0.6-0.2-1-0.5-1.4-0.8
		c-0.5-0.5-0.8-1.1-0.9-1.8c-0.1-0.7-0.2-1.6-0.2-2.8V52.4h-2.6v-0.7h2.6v-4.1c1,0,2-0.1,2.8-0.3C58.1,47.2,58.9,46.9,59.7,46.4z"/>
	<path class="st1" d="M71.3,43.1v11c0.5-1,1.3-1.7,2.2-2.1c0.9-0.4,2-0.6,3.1-0.6c1,0,1.7,0.1,2.3,0.4c0.6,0.2,1,0.5,1.3,0.9
		c0.4,0.4,0.6,1,0.8,1.6c0.2,0.7,0.2,1.5,0.2,2.7v8.9c0,0.9,0.1,1.5,0.4,1.9c0.3,0.3,0.8,0.5,1.5,0.5v0.7c-0.4,0-1.1,0-1.9-0.1
		c-0.9,0-1.7,0-2.6,0c-0.9,0-1.7,0-2.6,0c-0.8,0-1.5,0.1-1.9,0.1v-0.7c0.6,0,1-0.2,1.3-0.5c0.2-0.3,0.4-1,0.4-1.9V55.3
		c0-0.5-0.1-0.9-0.2-1.3c-0.1-0.4-0.3-0.6-0.5-0.8c-0.3-0.2-0.6-0.3-1.1-0.3c-0.5,0-1,0.1-1.4,0.4s-0.8,0.6-1,1.1
		c-0.3,0.5-0.4,1-0.4,1.6v9.8c0,0.9,0.1,1.5,0.4,1.9c0.3,0.3,0.7,0.5,1.3,0.5v0.7c-0.4,0-1,0-1.8-0.1c-0.8,0-1.6,0-2.4,0
		c-0.9,0-1.8,0-2.7,0c-0.9,0-1.6,0.1-2.1,0.1v-0.7c0.7,0,1.2-0.2,1.5-0.5c0.3-0.3,0.4-1,0.4-1.9V47c0-1-0.1-1.7-0.4-2.2
		c-0.3-0.5-0.8-0.7-1.6-0.7v-0.7c0.7,0.1,1.4,0.1,2,0.1c1,0,2,0,2.8-0.1C69.7,43.4,70.5,43.3,71.3,43.1z"/>
	<path class="st1" d="M102.9,45.5v0.7c-0.7,0-1.2,0.1-1.5,0.2s-0.6,0.4-0.7,0.8s-0.2,1-0.2,1.8v16.3c0,0.8,0.1,1.4,0.2,1.8
		c0.1,0.4,0.3,0.7,0.7,0.8c0.3,0.1,0.8,0.2,1.5,0.3v0.7c-0.6,0-1.4-0.1-2.4-0.1s-1.9,0-2.9,0c-1.1,0-2.2,0-3.1,0s-1.8,0-2.4,0.1
		v-0.7c0.7,0,1.2-0.1,1.5-0.3c0.3-0.1,0.6-0.4,0.7-0.8c0.1-0.4,0.2-1,0.2-1.8V49c0-0.8-0.1-1.4-0.2-1.8c-0.1-0.4-0.3-0.6-0.7-0.8
		c-0.3-0.1-0.9-0.2-1.5-0.2v-0.7c0.6,0,1.4,0,2.4,0.1c1,0,2,0,3.1,0c1,0,1.9,0,2.9,0C101.5,45.6,102.3,45.6,102.9,45.5z"/>
	<path class="st1" d="M117.3,51.3c1,0,1.7,0.1,2.3,0.4s1,0.5,1.3,0.9c0.4,0.4,0.6,1,0.8,1.6c0.2,0.7,0.2,1.5,0.2,2.7v8.9
		c0,0.9,0.1,1.5,0.4,1.9c0.3,0.3,0.8,0.5,1.5,0.5v0.7c-0.4,0-1.1,0-2-0.1c-0.9,0-1.7,0-2.5,0c-0.9,0-1.8,0-2.6,0
		c-0.8,0-1.5,0.1-1.9,0.1v-0.7c0.6,0,1-0.2,1.3-0.5c0.2-0.3,0.4-1,0.4-1.9V55.3c0-0.5-0.1-0.9-0.2-1.3c-0.1-0.4-0.3-0.6-0.6-0.8
		s-0.6-0.3-1.1-0.3c-0.5,0-1,0.1-1.4,0.4c-0.4,0.3-0.8,0.6-1,1.1s-0.4,1-0.4,1.6v9.8c0,0.9,0.1,1.5,0.4,1.9c0.2,0.3,0.7,0.5,1.3,0.5
		v0.7c-0.4,0-1,0-1.8-0.1c-0.8,0-1.6,0-2.4,0c-0.9,0-1.8,0-2.7,0c-0.9,0-1.6,0.1-2,0.1v-0.7c0.7,0,1.2-0.2,1.5-0.5
		c0.3-0.3,0.4-1,0.4-1.9V55.4c0-1-0.1-1.7-0.4-2.2c-0.3-0.5-0.8-0.7-1.5-0.7v-0.7c0.7,0.1,1.4,0.1,2,0.1c1,0,1.9,0,2.8-0.1
		c0.9-0.1,1.7-0.2,2.5-0.3v2.7c0.5-1,1.2-1.7,2.2-2.1C115.1,51.5,116.1,51.3,117.3,51.3z"/>
	<path class="st1" d="M132.2,46.4v5.4h3.6v0.7h-3.6v13.5c0,0.5,0.1,0.9,0.3,1.2c0.2,0.2,0.5,0.3,0.9,0.3c0.3,0,0.7-0.1,1-0.3
		c0.4-0.2,0.7-0.6,1-1.1l0.5,0.3c-0.4,0.9-1,1.6-1.7,2.2c-0.7,0.5-1.7,0.8-2.9,0.8c-0.7,0-1.4-0.1-1.9-0.3c-0.6-0.2-1-0.5-1.4-0.8
		c-0.5-0.5-0.8-1.1-0.9-1.8s-0.2-1.6-0.2-2.8V52.4h-2.6v-0.7h2.6v-4.1c1,0,2-0.1,2.8-0.3C130.6,47.2,131.4,46.9,132.2,46.4z"/>
	<path class="st1" d="M145.1,51.3c1.9,0,3.4,0.6,4.5,1.7c1.1,1.1,1.6,3,1.6,5.6h-10.6l0-0.6h6.1c0-1.1,0-2.1-0.1-3
		c-0.1-0.9-0.3-1.6-0.6-2.2c-0.3-0.5-0.7-0.8-1.2-0.8c-0.7,0-1.2,0.5-1.7,1.4c-0.5,0.9-0.7,2.5-0.9,4.8l0.1,0.2
		c0,0.2-0.1,0.5-0.1,0.7c0,0.3,0,0.5,0,0.8c0,1.5,0.2,2.7,0.6,3.6c0.4,0.9,0.9,1.5,1.5,1.9c0.6,0.4,1.3,0.6,1.9,0.6
		c0.4,0,0.8-0.1,1.3-0.2c0.5-0.1,0.9-0.3,1.4-0.7c0.5-0.4,1-0.9,1.4-1.5l0.6,0.2c-0.2,0.9-0.7,1.7-1.2,2.5c-0.6,0.8-1.3,1.5-2.2,2
		s-2,0.8-3.3,0.8c-1.4,0-2.7-0.3-3.9-0.9c-1.1-0.6-2-1.6-2.7-2.9s-1-3-1-5.1c0-2.1,0.4-3.8,1.1-5.1c0.7-1.3,1.7-2.3,3-3
		C142.1,51.7,143.5,51.3,145.1,51.3z"/>
	<path class="st1" d="M164.4,51.3c0.7,0,1.3,0.2,1.8,0.5s0.8,0.7,1,1.2s0.3,1,0.3,1.5c0,0.9-0.3,1.6-0.8,2.2c-0.5,0.5-1.2,0.8-2,0.8
		c-0.9,0-1.5-0.2-2-0.6c-0.5-0.4-0.7-0.9-0.7-1.6c0-0.7,0.1-1.2,0.4-1.7c0.3-0.4,0.7-0.8,1.1-1.1c-0.3,0-0.6,0-1,0.1
		c-0.4,0.1-0.7,0.3-1,0.5c-0.3,0.2-0.6,0.5-0.8,0.9c-0.2,0.3-0.4,0.7-0.5,1.1c-0.1,0.4-0.2,0.8-0.2,1.2v9.3c0,1.1,0.2,1.8,0.7,2.1
		s1.2,0.6,2.3,0.6v0.7c-0.5,0-1.3,0-2.2-0.1c-1,0-2,0-3.1,0c-0.9,0-1.9,0-2.8,0c-1,0-1.7,0.1-2.1,0.1v-0.7c0.7,0,1.2-0.2,1.5-0.5
		c0.3-0.3,0.4-1,0.4-1.9V55.4c0-1-0.1-1.7-0.4-2.2s-0.8-0.7-1.5-0.7v-0.7c0.7,0.1,1.4,0.1,2,0.1c1,0,1.9,0,2.8-0.1
		c0.9-0.1,1.7-0.2,2.5-0.3v2.7c0.3-0.6,0.6-1.1,1-1.5c0.4-0.4,0.9-0.7,1.5-1C163.2,51.4,163.8,51.3,164.4,51.3z"/>
	<path class="st1" d="M181,51.3c1,0,1.7,0.1,2.3,0.4s1,0.5,1.3,0.9c0.4,0.4,0.6,1,0.8,1.6c0.2,0.7,0.2,1.5,0.2,2.7v8.9
		c0,0.9,0.1,1.5,0.4,1.9c0.3,0.3,0.8,0.5,1.5,0.5v0.7c-0.4,0-1.1,0-2-0.1c-0.9,0-1.7,0-2.5,0c-0.9,0-1.8,0-2.6,0
		c-0.8,0-1.5,0.1-1.9,0.1v-0.7c0.6,0,1-0.2,1.3-0.5c0.2-0.3,0.4-1,0.4-1.9V55.3c0-0.5-0.1-0.9-0.2-1.3c-0.1-0.4-0.3-0.6-0.6-0.8
		s-0.6-0.3-1.1-0.3c-0.5,0-1,0.1-1.4,0.4c-0.4,0.3-0.8,0.6-1,1.1s-0.4,1-0.4,1.6v9.8c0,0.9,0.1,1.5,0.4,1.9c0.2,0.3,0.7,0.5,1.3,0.5
		v0.7c-0.4,0-1,0-1.8-0.1c-0.8,0-1.6,0-2.4,0c-0.9,0-1.8,0-2.7,0c-0.9,0-1.6,0.1-2,0.1v-0.7c0.7,0,1.2-0.2,1.5-0.5
		c0.3-0.3,0.4-1,0.4-1.9V55.4c0-1-0.1-1.7-0.4-2.2c-0.3-0.5-0.8-0.7-1.5-0.7v-0.7c0.7,0.1,1.4,0.1,2,0.1c1,0,1.9,0,2.8-0.1
		c0.9-0.1,1.7-0.2,2.5-0.3v2.7c0.5-1,1.2-1.7,2.2-2.1C178.8,51.5,179.8,51.3,181,51.3z"/>
	<path class="st1" d="M193.2,69.1c-1,0-1.8-0.2-2.5-0.6s-1.1-0.9-1.4-1.5c-0.3-0.6-0.5-1.3-0.5-2c0-0.9,0.2-1.7,0.6-2.3
		c0.4-0.6,1-1.1,1.7-1.4s1.4-0.7,2.1-0.9c0.7-0.2,1.5-0.5,2.1-0.7s1.2-0.5,1.6-0.8c0.4-0.3,0.6-0.7,0.6-1.2v-2.7
		c0-0.5-0.1-0.9-0.2-1.4c-0.1-0.4-0.4-0.8-0.8-1.1s-0.9-0.4-1.5-0.4c-0.4,0-0.8,0.1-1.2,0.2s-0.7,0.3-1,0.5c0.7,0.2,1.2,0.6,1.6,1.1
		c0.3,0.5,0.5,1,0.5,1.6c0,0.8-0.3,1.5-0.8,1.9c-0.6,0.5-1.2,0.7-2,0.7c-0.8,0-1.5-0.3-1.9-0.8c-0.5-0.5-0.7-1.2-0.7-1.9
		c0-0.7,0.2-1.2,0.5-1.7c0.3-0.5,0.8-0.9,1.4-1.2c0.6-0.4,1.4-0.6,2.3-0.8c0.9-0.2,1.9-0.3,2.9-0.3c1,0,2,0.1,2.8,0.3
		c0.9,0.2,1.6,0.6,2.2,1.2c0.5,0.5,0.8,1.1,0.9,1.8c0.1,0.7,0.2,1.6,0.2,2.8v8.9c0,0.5,0,0.9,0.1,1.1c0.1,0.2,0.3,0.3,0.5,0.3
		c0.2,0,0.4-0.1,0.6-0.2c0.2-0.1,0.3-0.2,0.5-0.4l0.4,0.6c-0.5,0.4-1.1,0.7-1.7,0.9c-0.7,0.2-1.4,0.3-2.1,0.3
		c-0.9,0-1.6-0.1-2.1-0.3s-0.8-0.5-1.1-0.9c-0.2-0.4-0.3-0.8-0.3-1.3c-0.5,0.8-1.1,1.4-1.8,1.9C195.2,68.8,194.3,69.1,193.2,69.1z
		 M196,66.7c0.3,0,0.7-0.1,0.9-0.2c0.3-0.1,0.5-0.4,0.8-0.7v-6.8c-0.2,0.3-0.4,0.6-0.7,0.9s-0.6,0.5-0.9,0.8
		c-0.3,0.3-0.6,0.6-0.9,0.9c-0.3,0.3-0.5,0.7-0.7,1.2c-0.2,0.5-0.3,1-0.3,1.6c0,0.9,0.2,1.5,0.5,1.8C195,66.5,195.4,66.7,196,66.7z"
		/>
	<path class="st1" d="M213.2,46.4v5.4h3.6v0.7h-3.6v13.5c0,0.5,0.1,0.9,0.3,1.2c0.2,0.2,0.5,0.3,0.9,0.3c0.3,0,0.7-0.1,1-0.3
		c0.4-0.2,0.7-0.6,1-1.1l0.5,0.3c-0.4,0.9-1,1.6-1.7,2.2c-0.7,0.5-1.7,0.8-2.9,0.8c-0.7,0-1.4-0.1-1.9-0.3c-0.6-0.2-1-0.5-1.4-0.8
		c-0.5-0.5-0.8-1.1-0.9-1.8s-0.2-1.6-0.2-2.8V52.4h-2.6v-0.7h2.6v-4.1c1,0,2-0.1,2.8-0.3C211.5,47.2,212.4,46.9,213.2,46.4z"/>
	<path class="st1" d="M224.9,51.4v14.4c0,0.9,0.1,1.5,0.4,1.9c0.3,0.3,0.8,0.5,1.5,0.5v0.7c-0.4,0-1.1,0-1.9-0.1c-0.9,0-1.7,0-2.6,0
		c-0.9,0-1.8,0-2.7,0c-0.9,0-1.6,0.1-2.1,0.1v-0.7c0.7,0,1.2-0.2,1.5-0.5c0.3-0.3,0.4-1,0.4-1.9V55.4c0-1-0.1-1.7-0.4-2.2
		c-0.3-0.5-0.8-0.7-1.6-0.7v-0.7c0.7,0.1,1.4,0.1,2,0.1c1,0,1.9,0,2.8-0.1C223.3,51.7,224.1,51.6,224.9,51.4z M222,43.2
		c1,0,1.8,0.2,2.4,0.7c0.6,0.5,0.9,1.1,0.9,2s-0.3,1.5-0.9,2c-0.6,0.5-1.4,0.7-2.4,0.7s-1.8-0.2-2.4-0.7s-0.9-1.1-0.9-2
		s0.3-1.5,0.9-2S220.9,43.2,222,43.2z"/>
	<path class="st1" d="M236.8,51.3c1.6,0,3.1,0.3,4.3,0.9c1.2,0.6,2.2,1.5,2.9,2.8c0.7,1.3,1,3.1,1,5.3c0,2.2-0.3,4-1,5.3
		c-0.7,1.3-1.7,2.3-2.9,2.8c-1.2,0.6-2.7,0.9-4.3,0.9c-1.6,0-3.1-0.3-4.3-0.9c-1.2-0.6-2.2-1.5-2.9-2.8c-0.7-1.3-1.1-3.1-1.1-5.3
		c0-2.2,0.4-4,1.1-5.3c0.7-1.3,1.7-2.3,2.9-2.8C233.8,51.6,235.2,51.3,236.8,51.3z M236.8,52c-0.8,0-1.4,0.7-1.9,2s-0.8,3.4-0.8,6.4
		c0,2.9,0.3,5.1,0.8,6.4s1.2,2,1.9,2c0.8,0,1.4-0.7,1.9-2c0.5-1.3,0.8-3.4,0.8-6.4c0-2.9-0.3-5.1-0.8-6.4
		C238.3,52.6,237.6,52,236.8,52z"/>
	<path class="st1" d="M259.6,51.3c1,0,1.7,0.1,2.3,0.4s1,0.5,1.3,0.9c0.4,0.4,0.6,1,0.8,1.6c0.2,0.7,0.2,1.5,0.2,2.7v8.9
		c0,0.9,0.1,1.5,0.4,1.9c0.3,0.3,0.8,0.5,1.5,0.5v0.7c-0.4,0-1.1,0-2-0.1c-0.9,0-1.7,0-2.5,0c-0.9,0-1.8,0-2.6,0
		c-0.8,0-1.5,0.1-1.9,0.1v-0.7c0.6,0,1-0.2,1.3-0.5c0.2-0.3,0.4-1,0.4-1.9V55.3c0-0.5-0.1-0.9-0.2-1.3c-0.1-0.4-0.3-0.6-0.6-0.8
		s-0.6-0.3-1.1-0.3c-0.5,0-1,0.1-1.4,0.4c-0.4,0.3-0.8,0.6-1,1.1s-0.4,1-0.4,1.6v9.8c0,0.9,0.1,1.5,0.4,1.9c0.2,0.3,0.7,0.5,1.3,0.5
		v0.7c-0.4,0-1,0-1.8-0.1c-0.8,0-1.6,0-2.4,0c-0.9,0-1.8,0-2.7,0c-0.9,0-1.6,0.1-2,0.1v-0.7c0.7,0,1.2-0.2,1.5-0.5
		c0.3-0.3,0.4-1,0.4-1.9V55.4c0-1-0.1-1.7-0.4-2.2c-0.3-0.5-0.8-0.7-1.5-0.7v-0.7c0.7,0.1,1.4,0.1,2,0.1c1,0,1.9,0,2.8-0.1
		c0.9-0.1,1.7-0.2,2.5-0.3v2.7c0.5-1,1.2-1.7,2.2-2.1C257.3,51.5,258.4,51.3,259.6,51.3z"/>
	<path class="st1" d="M271.8,69.1c-1,0-1.8-0.2-2.5-0.6s-1.1-0.9-1.4-1.5c-0.3-0.6-0.5-1.3-0.5-2c0-0.9,0.2-1.7,0.6-2.3
		c0.4-0.6,1-1.1,1.7-1.4s1.4-0.7,2.1-0.9c0.7-0.2,1.5-0.5,2.1-0.7s1.2-0.5,1.6-0.8c0.4-0.3,0.6-0.7,0.6-1.2v-2.7
		c0-0.5-0.1-0.9-0.2-1.4c-0.1-0.4-0.4-0.8-0.8-1.1s-0.9-0.4-1.5-0.4c-0.4,0-0.8,0.1-1.2,0.2s-0.7,0.3-1,0.5c0.7,0.2,1.2,0.6,1.6,1.1
		c0.3,0.5,0.5,1,0.5,1.6c0,0.8-0.3,1.5-0.8,1.9c-0.6,0.5-1.2,0.7-2,0.7c-0.8,0-1.5-0.3-1.9-0.8c-0.5-0.5-0.7-1.2-0.7-1.9
		c0-0.7,0.2-1.2,0.5-1.7c0.3-0.5,0.8-0.9,1.4-1.2c0.6-0.4,1.4-0.6,2.3-0.8c0.9-0.2,1.9-0.3,2.9-0.3c1,0,2,0.1,2.8,0.3
		c0.9,0.2,1.6,0.6,2.2,1.2c0.5,0.5,0.8,1.1,0.9,1.8c0.1,0.7,0.2,1.6,0.2,2.8v8.9c0,0.5,0,0.9,0.1,1.1c0.1,0.2,0.3,0.3,0.5,0.3
		c0.2,0,0.4-0.1,0.6-0.2c0.2-0.1,0.3-0.2,0.5-0.4l0.4,0.6c-0.5,0.4-1.1,0.7-1.7,0.9c-0.7,0.2-1.4,0.3-2.1,0.3
		c-0.9,0-1.6-0.1-2.1-0.3s-0.8-0.5-1.1-0.9c-0.2-0.4-0.3-0.8-0.3-1.3c-0.5,0.8-1.1,1.4-1.8,1.9C273.8,68.8,272.9,69.1,271.8,69.1z
		 M274.5,66.7c0.3,0,0.7-0.1,0.9-0.2c0.3-0.1,0.5-0.4,0.8-0.7v-6.8c-0.2,0.3-0.4,0.6-0.7,0.9s-0.6,0.5-0.9,0.8
		c-0.3,0.3-0.6,0.6-0.9,0.9c-0.3,0.3-0.5,0.7-0.7,1.2c-0.2,0.5-0.3,1-0.3,1.6c0,0.9,0.2,1.5,0.5,1.8C273.5,66.5,274,66.7,274.5,66.7
		z"/>
	<path class="st1" d="M291.8,43.1v22.7c0,0.9,0.1,1.5,0.4,1.9c0.3,0.3,0.8,0.5,1.5,0.5v0.7c-0.4,0-1.1,0-1.9-0.1c-0.9,0-1.7,0-2.6,0
		c-0.9,0-1.8,0-2.7,0c-0.9,0-1.6,0.1-2.1,0.1v-0.7c0.7,0,1.2-0.2,1.5-0.5c0.3-0.3,0.4-1,0.4-1.9V47c0-1-0.1-1.7-0.4-2.2
		c-0.3-0.5-0.8-0.7-1.6-0.7v-0.7c0.7,0.1,1.4,0.1,2,0.1c1,0,2,0,2.8-0.1C290.2,43.4,291,43.3,291.8,43.1z"/>
</g>
<g>
	<path d="M320.7,6c0.6,0,1.4,0,2.4,0.1c1,0,2,0,3,0c1.1,0,2.1,0,3.1,0c1,0,1.7,0,2.1,0c3.2,0,5.6,0.6,7.2,1.8
		c1.6,1.2,2.4,2.8,2.4,4.7c0,0.8-0.2,1.6-0.5,2.5c-0.3,0.9-0.9,1.7-1.6,2.4c-0.8,0.7-1.8,1.3-3.1,1.8s-3,0.7-5,0.7h-3.4v-0.7h3.1
		c1.2,0,2.1-0.3,2.7-0.9c0.6-0.6,1.1-1.4,1.3-2.3s0.3-2,0.3-3.1c0-2.1-0.3-3.6-0.8-4.7c-0.5-1-1.5-1.5-2.8-1.5
		c-0.8,0-1.3,0.2-1.6,0.6c-0.2,0.4-0.3,1.1-0.3,2.3v16.1c0,0.9,0.1,1.5,0.3,2c0.2,0.4,0.5,0.7,1.1,0.8c0.5,0.1,1.3,0.2,2.3,0.2v0.7
		c-0.7,0-1.7,0-2.8-0.1c-1.1,0-2.3,0-3.6,0c-1,0-2,0-2.9,0c-1,0-1.8,0-2.7,0.1v-0.7c0.7,0,1.2-0.1,1.5-0.3c0.3-0.1,0.6-0.4,0.7-0.8
		c0.1-0.4,0.2-1,0.2-1.8V9.5c0-0.8-0.1-1.4-0.2-1.8c-0.1-0.4-0.4-0.6-0.7-0.8c-0.3-0.1-0.9-0.2-1.5-0.2V6z"/>
	<path d="M350.4,11.8c1.6,0,3.1,0.3,4.3,0.9c1.2,0.6,2.2,1.5,2.9,2.8c0.7,1.3,1,3.1,1,5.3c0,2.2-0.3,4-1,5.3s-1.7,2.3-2.9,2.8
		c-1.2,0.6-2.7,0.9-4.3,0.9c-1.6,0-3.1-0.3-4.3-0.9c-1.2-0.6-2.2-1.5-2.9-2.8c-0.7-1.3-1.1-3.1-1.1-5.3c0-2.2,0.4-4,1.1-5.3
		c0.7-1.3,1.7-2.3,2.9-2.8S348.8,11.8,350.4,11.8z M350.4,12.5c-0.8,0-1.4,0.7-1.9,2c-0.5,1.3-0.8,3.4-0.8,6.4
		c0,2.9,0.3,5.1,0.8,6.4c0.5,1.3,1.2,2,1.9,2c0.8,0,1.4-0.7,1.9-2c0.5-1.3,0.8-3.4,0.8-6.4c0-2.9-0.3-5.1-0.8-6.4
		C351.8,13.1,351.2,12.5,350.4,12.5z"/>
	<path d="M368.6,12.3V13c-0.5,0-0.9,0-1.2,0.1c-0.3,0.1-0.6,0.2-0.7,0.4c-0.1,0.2-0.1,0.6,0,1.1l3,9.8l-0.5,0.6l3.5-12.6l0.7,0.3
		l-4.7,16.8c-0.4,0-0.9-0.1-1.3-0.1c-0.5,0-0.9,0-1.3,0.1l-5.1-14.6c-0.3-0.9-0.6-1.4-1-1.6c-0.4-0.2-0.7-0.3-0.9-0.3v-0.7
		c0.8,0.1,1.6,0.1,2.5,0.1c0.9,0,1.8,0,2.8,0c0.7,0,1.4,0,2.2-0.1C367.2,12.4,367.9,12.3,368.6,12.3z M385.4,12.3V13
		c-0.4,0.1-0.8,0.4-1.2,0.8c-0.4,0.4-0.8,1.1-1.1,2.2l-4.2,13.4c-0.4,0-0.9-0.1-1.3-0.1c-0.4,0-0.9,0-1.3,0.1L371.8,17l0.9-4.7
		c0.5,0,1,0,1.5,0c0.5,0,1,0,1.5,0l4.3,13.2l-0.4-0.6l1.9-6c0.4-1.4,0.6-2.5,0.5-3.3s-0.4-1.5-0.9-1.9c-0.5-0.4-1.1-0.7-1.8-0.7
		v-0.7c0.3,0,0.7,0,1.2,0.1s0.9,0,1.3,0c0.4,0,0.8,0,1.1,0c0.4,0,0.9,0,1.4,0C384.8,12.4,385.2,12.3,385.4,12.3z"/>
	<path d="M394.2,11.8c1.9,0,3.4,0.6,4.5,1.7c1.1,1.1,1.6,3,1.6,5.6h-10.6l0-0.6h6.1c0-1.1,0-2.1-0.1-3c-0.1-0.9-0.3-1.6-0.6-2.2
		c-0.3-0.5-0.7-0.8-1.2-0.8c-0.7,0-1.2,0.5-1.7,1.4c-0.5,0.9-0.7,2.5-0.9,4.8l0.1,0.2c0,0.2-0.1,0.5-0.1,0.7c0,0.3,0,0.5,0,0.8
		c0,1.5,0.2,2.7,0.6,3.6c0.4,0.9,0.9,1.5,1.5,1.9c0.6,0.4,1.3,0.6,1.9,0.6c0.4,0,0.8-0.1,1.3-0.2c0.5-0.1,0.9-0.3,1.4-0.7
		s1-0.9,1.4-1.5l0.6,0.2c-0.2,0.9-0.7,1.7-1.2,2.5c-0.6,0.8-1.3,1.5-2.2,2c-0.9,0.5-2,0.8-3.3,0.8c-1.4,0-2.7-0.3-3.9-0.9
		c-1.1-0.6-2-1.6-2.7-2.9c-0.7-1.3-1-3-1-5.1c0-2.1,0.4-3.8,1.1-5.1c0.7-1.3,1.7-2.3,3-3C391.2,12.1,392.6,11.8,394.2,11.8z"/>
	<path d="M413.6,11.8c0.7,0,1.3,0.2,1.8,0.5s0.8,0.7,1,1.2s0.3,1,0.3,1.5c0,0.9-0.3,1.6-0.8,2.2c-0.5,0.5-1.2,0.8-2,0.8
		c-0.9,0-1.5-0.2-2-0.6c-0.5-0.4-0.7-0.9-0.7-1.6c0-0.7,0.1-1.2,0.4-1.7c0.3-0.4,0.7-0.8,1.1-1.1c-0.3,0-0.6,0-1,0.1
		c-0.4,0.1-0.7,0.3-1,0.5c-0.3,0.2-0.6,0.5-0.8,0.9c-0.2,0.3-0.4,0.7-0.5,1.1c-0.1,0.4-0.2,0.8-0.2,1.2v9.3c0,1.1,0.2,1.8,0.7,2.1
		c0.5,0.4,1.2,0.6,2.3,0.6v0.7c-0.5,0-1.3,0-2.2-0.1c-1,0-2,0-3.1,0c-0.9,0-1.9,0-2.8,0c-1,0-1.7,0.1-2.1,0.1v-0.7
		c0.7,0,1.2-0.2,1.5-0.5c0.3-0.3,0.4-1,0.4-1.9V15.9c0-1-0.1-1.7-0.4-2.2c-0.3-0.5-0.8-0.7-1.5-0.7v-0.7c0.7,0.1,1.4,0.1,2,0.1
		c1,0,1.9,0,2.8-0.1c0.9-0.1,1.7-0.2,2.5-0.3v2.7c0.3-0.6,0.6-1.1,1-1.5s0.9-0.7,1.5-1S412.9,11.8,413.6,11.8z"/>
	<path d="M423.8,3.6v22.7c0,0.9,0.1,1.5,0.4,1.9c0.3,0.3,0.8,0.5,1.5,0.5v0.7c-0.4,0-1.1,0-1.9-0.1c-0.9,0-1.7,0-2.6,0
		c-0.9,0-1.8,0-2.7,0c-0.9,0-1.6,0.1-2.1,0.1v-0.7c0.7,0,1.2-0.2,1.5-0.5s0.4-1,0.4-1.9V7.5c0-1-0.1-1.7-0.4-2.2
		c-0.3-0.5-0.8-0.7-1.6-0.7V4c0.7,0.1,1.4,0.1,2,0.1c1,0,2,0,2.8-0.1C422.2,3.9,423,3.7,423.8,3.6z"/>
	<path d="M434.4,11.9v14.4c0,0.9,0.1,1.5,0.4,1.9c0.3,0.3,0.8,0.5,1.5,0.5v0.7c-0.4,0-1.1,0-1.9-0.1c-0.9,0-1.7,0-2.6,0
		c-0.9,0-1.8,0-2.7,0c-0.9,0-1.6,0.1-2.1,0.1v-0.7c0.7,0,1.2-0.2,1.5-0.5c0.3-0.3,0.4-1,0.4-1.9V15.9c0-1-0.1-1.7-0.4-2.2
		c-0.3-0.5-0.8-0.7-1.6-0.7v-0.7c0.7,0.1,1.4,0.1,2,0.1c1,0,1.9,0,2.8-0.1C432.9,12.2,433.7,12.1,434.4,11.9z M431.5,3.7
		c1,0,1.8,0.2,2.4,0.7s0.9,1.1,0.9,2c0,0.9-0.3,1.5-0.9,2s-1.4,0.7-2.4,0.7c-1,0-1.8-0.2-2.4-0.7c-0.6-0.5-0.9-1.1-0.9-2
		c0-0.9,0.3-1.5,0.9-2C429.7,3.9,430.5,3.7,431.5,3.7z"/>
	<path d="M446.6,3.6c0.8,0,1.6,0.1,2.2,0.3c0.6,0.2,1.1,0.5,1.6,0.8c0.3,0.2,0.6,0.6,0.8,1c0.2,0.5,0.3,1,0.3,1.6
		c0,0.6-0.2,1.2-0.7,1.7c-0.5,0.5-1.1,0.8-1.8,0.8c-0.8,0-1.5-0.2-2-0.7c-0.5-0.4-0.8-1.1-0.8-1.9c0-0.6,0.2-1.1,0.5-1.6
		c0.4-0.5,0.9-0.8,1.6-1c-0.1-0.1-0.2-0.2-0.4-0.3c-0.2-0.1-0.4-0.1-0.7-0.1c-0.4,0-0.7,0.1-1,0.2s-0.5,0.3-0.7,0.6
		c-0.2,0.3-0.4,0.7-0.5,1.2S445,7.5,445,8.6v3.7h3.5V13H445v13c0,1.1,0.3,1.8,0.8,2.2c0.5,0.4,1.3,0.5,2.2,0.5v0.7
		c-0.6,0-1.4,0-2.5-0.1c-1.1,0-2.2,0-3.4,0c-0.9,0-1.7,0-2.5,0c-0.8,0-1.5,0.1-1.9,0.1v-0.7c0.7,0,1.2-0.2,1.5-0.5
		c0.3-0.3,0.4-1,0.4-1.9V13h-2.1v-0.7h2.1c0-1.3,0.1-2.4,0.2-3.2c0.1-0.9,0.4-1.6,0.7-2.2c0.3-0.6,0.8-1.1,1.3-1.6
		c0.5-0.5,1.1-0.9,2-1.2C444.7,3.8,445.6,3.6,446.6,3.6z"/>
	<path d="M457.5,11.8c1.9,0,3.4,0.6,4.5,1.7c1.1,1.1,1.6,3,1.6,5.6h-10.6l0-0.6h6.1c0-1.1,0-2.1-0.1-3c-0.1-0.9-0.3-1.6-0.6-2.2
		c-0.3-0.5-0.7-0.8-1.2-0.8c-0.7,0-1.2,0.5-1.7,1.4c-0.5,0.9-0.7,2.5-0.9,4.8l0.1,0.2c0,0.2-0.1,0.5-0.1,0.7c0,0.3,0,0.5,0,0.8
		c0,1.5,0.2,2.7,0.6,3.6c0.4,0.9,0.9,1.5,1.5,1.9c0.6,0.4,1.3,0.6,1.9,0.6c0.4,0,0.8-0.1,1.3-0.2c0.5-0.1,0.9-0.3,1.4-0.7
		s1-0.9,1.4-1.5l0.6,0.2c-0.2,0.9-0.7,1.7-1.2,2.5c-0.6,0.8-1.3,1.5-2.2,2c-0.9,0.5-2,0.8-3.3,0.8c-1.4,0-2.7-0.3-3.9-0.9
		c-1.1-0.6-2-1.6-2.7-2.9c-0.7-1.3-1-3-1-5.1c0-2.1,0.4-3.8,1.1-5.1c0.7-1.3,1.7-2.3,3-3C454.6,12.1,456,11.8,457.5,11.8z"/>
	<path d="M485.6,5.6c1.4,0,2.6,0.2,3.6,0.6c0.9,0.4,1.8,0.9,2.5,1.5c0.4,0.3,0.8,0.4,1,0.1c0.2-0.3,0.4-0.9,0.5-1.8h0.8
		c0,0.9-0.1,1.9-0.1,3.2c0,1.3,0,2.9,0,4.9H493c-0.1-1-0.2-1.9-0.4-2.7c-0.2-0.8-0.5-1.4-0.8-2c-0.4-0.6-0.9-1.1-1.5-1.6
		c-0.5-0.4-1.1-0.7-1.7-1c-0.6-0.2-1.3-0.3-1.9-0.3c-1.2,0-2.2,0.3-3,1c-0.8,0.7-1.5,1.5-2,2.6c-0.5,1.1-0.8,2.3-1.1,3.6
		c-0.2,1.3-0.3,2.7-0.3,4c0,1.4,0.1,2.7,0.3,4c0.2,1.3,0.6,2.5,1.1,3.6c0.5,1.1,1.2,1.9,2,2.6c0.8,0.6,1.9,1,3.1,1
		c0.6,0,1.3-0.1,1.9-0.3c0.6-0.2,1.2-0.5,1.7-1c1-0.7,1.6-1.5,2-2.6c0.3-1.1,0.6-2.5,0.7-4.2h0.8c0,2.1,0,3.8,0,5.2
		c0,1.3,0.1,2.4,0.1,3.3h-0.8c-0.1-0.9-0.2-1.5-0.4-1.8c-0.2-0.2-0.6-0.2-1,0.1c-0.8,0.6-1.7,1.1-2.6,1.5c-0.9,0.4-2.1,0.6-3.5,0.6
		c-2.4,0-4.5-0.5-6.3-1.4c-1.8-0.9-3.2-2.3-4.2-4.1c-1-1.8-1.5-3.9-1.5-6.4c0-2.5,0.5-4.6,1.5-6.5c1-1.8,2.5-3.3,4.3-4.3
		C481.2,6.1,483.2,5.6,485.6,5.6z"/>
	<path d="M503.6,3.6v11c0.5-1,1.3-1.7,2.2-2.1c0.9-0.4,2-0.6,3.1-0.6c1,0,1.7,0.1,2.3,0.4s1,0.5,1.3,0.9c0.4,0.4,0.6,1,0.8,1.6
		c0.2,0.7,0.2,1.5,0.2,2.7v8.9c0,0.9,0.1,1.5,0.4,1.9s0.8,0.5,1.5,0.5v0.7c-0.4,0-1.1,0-1.9-0.1c-0.9,0-1.7,0-2.6,0
		c-0.9,0-1.7,0-2.6,0c-0.8,0-1.5,0.1-1.9,0.1v-0.7c0.6,0,1-0.2,1.3-0.5c0.2-0.3,0.4-1,0.4-1.9V15.8c0-0.5-0.1-0.9-0.2-1.3
		c-0.1-0.4-0.3-0.6-0.5-0.8c-0.3-0.2-0.6-0.3-1.1-0.3c-0.5,0-1,0.1-1.4,0.4c-0.4,0.3-0.8,0.6-1,1.1c-0.3,0.5-0.4,1-0.4,1.6v9.8
		c0,0.9,0.1,1.5,0.4,1.9s0.7,0.5,1.3,0.5v0.7c-0.4,0-1,0-1.8-0.1c-0.8,0-1.6,0-2.4,0c-0.9,0-1.8,0-2.7,0c-0.9,0-1.6,0.1-2.1,0.1
		v-0.7c0.7,0,1.2-0.2,1.5-0.5c0.3-0.3,0.4-1,0.4-1.9V7.5c0-1-0.1-1.7-0.4-2.2c-0.3-0.5-0.8-0.7-1.6-0.7V4c0.7,0.1,1.4,0.1,2,0.1
		c1,0,2,0,2.8-0.1C502,3.9,502.8,3.7,503.6,3.6z"/>
	<path d="M528.3,11.8c0.7,0,1.3,0.2,1.8,0.5s0.8,0.7,1,1.2s0.3,1,0.3,1.5c0,0.9-0.3,1.6-0.8,2.2c-0.5,0.5-1.2,0.8-2,0.8
		c-0.9,0-1.5-0.2-2-0.6c-0.5-0.4-0.7-0.9-0.7-1.6c0-0.7,0.1-1.2,0.4-1.7c0.3-0.4,0.7-0.8,1.1-1.1c-0.3,0-0.6,0-1,0.1
		c-0.4,0.1-0.7,0.3-1,0.5c-0.3,0.2-0.6,0.5-0.8,0.9c-0.2,0.3-0.4,0.7-0.5,1.1c-0.1,0.4-0.2,0.8-0.2,1.2v9.3c0,1.1,0.2,1.8,0.7,2.1
		c0.5,0.4,1.2,0.6,2.3,0.6v0.7c-0.5,0-1.3,0-2.2-0.1c-1,0-2,0-3.1,0c-0.9,0-1.9,0-2.8,0c-1,0-1.7,0.1-2.1,0.1v-0.7
		c0.7,0,1.2-0.2,1.5-0.5c0.3-0.3,0.4-1,0.4-1.9V15.9c0-1-0.1-1.7-0.4-2.2c-0.3-0.5-0.8-0.7-1.5-0.7v-0.7c0.7,0.1,1.4,0.1,2,0.1
		c1,0,1.9,0,2.8-0.1c0.9-0.1,1.7-0.2,2.5-0.3v2.7c0.3-0.6,0.6-1.1,1-1.5s0.9-0.7,1.5-1S527.7,11.8,528.3,11.8z"/>
	<path d="M539.6,11.9v14.4c0,0.9,0.1,1.5,0.4,1.9c0.3,0.3,0.8,0.5,1.5,0.5v0.7c-0.4,0-1.1,0-1.9-0.1c-0.9,0-1.7,0-2.6,0
		c-0.9,0-1.8,0-2.7,0c-0.9,0-1.6,0.1-2.1,0.1v-0.7c0.7,0,1.2-0.2,1.5-0.5c0.3-0.3,0.4-1,0.4-1.9V15.9c0-1-0.1-1.7-0.4-2.2
		c-0.3-0.5-0.8-0.7-1.6-0.7v-0.7c0.7,0.1,1.4,0.1,2,0.1c1,0,1.9,0,2.8-0.1C538,12.2,538.8,12.1,539.6,11.9z M536.7,3.7
		c1,0,1.8,0.2,2.4,0.7s0.9,1.1,0.9,2c0,0.9-0.3,1.5-0.9,2s-1.4,0.7-2.4,0.7c-1,0-1.8-0.2-2.4-0.7c-0.6-0.5-0.9-1.1-0.9-2
		c0-0.9,0.3-1.5,0.9-2C534.8,3.9,535.6,3.7,536.7,3.7z"/>
	<path d="M549.6,11.8c1,0,1.8,0.1,2.5,0.3c0.7,0.2,1.2,0.4,1.5,0.6c0.8,0.5,1.2,0.2,1.4-0.9h0.7c0,0.6-0.1,1.4-0.1,2.3
		c0,0.9,0,2.1,0,3.6h-0.7c-0.1-0.8-0.3-1.6-0.6-2.4c-0.3-0.8-0.7-1.4-1.3-2c-0.6-0.5-1.3-0.8-2.2-0.8c-0.6,0-1.1,0.2-1.5,0.5
		c-0.4,0.4-0.6,0.8-0.6,1.4c0,0.7,0.2,1.2,0.6,1.7c0.4,0.5,0.9,1,1.5,1.4c0.6,0.5,1.3,1,1.9,1.5c0.7,0.5,1.3,1.1,1.9,1.6
		c0.6,0.5,1,1.1,1.3,1.7c0.3,0.6,0.5,1.4,0.5,2.3c0,1-0.3,1.9-0.9,2.6s-1.4,1.3-2.3,1.7c-1,0.4-2,0.6-3.2,0.6
		c-0.7,0-1.4-0.1-1.9-0.2c-0.5-0.1-1-0.3-1.3-0.5c-0.3-0.2-0.6-0.3-0.9-0.4c-0.3-0.1-0.5-0.2-0.7-0.2c-0.2,0-0.4,0.1-0.6,0.3
		c-0.2,0.2-0.3,0.5-0.4,0.9h-0.7c0-0.7,0.1-1.6,0.1-2.6c0-1,0-2.3,0-4h0.7c0.1,1.2,0.4,2.2,0.7,3.1s0.9,1.6,1.5,2.1
		c0.6,0.5,1.3,0.8,2.2,0.8c0.4,0,0.7-0.1,1-0.2s0.6-0.4,0.8-0.7c0.2-0.3,0.3-0.7,0.3-1.2c0-1-0.3-1.8-0.9-2.4
		c-0.6-0.6-1.4-1.4-2.3-2.1c-0.7-0.6-1.4-1.2-2-1.7c-0.6-0.6-1.1-1.2-1.5-1.9c-0.4-0.7-0.6-1.4-0.6-2.3c0-1,0.3-1.8,0.8-2.5
		c0.6-0.7,1.3-1.2,2.2-1.6C547.6,12,548.6,11.8,549.6,11.8z"/>
	<path d="M565.4,6.9v5.4h3.6v0.7h-3.6v13.5c0,0.5,0.1,0.9,0.3,1.2s0.5,0.3,0.9,0.3c0.3,0,0.7-0.1,1-0.3c0.4-0.2,0.7-0.6,1-1.1
		l0.5,0.3c-0.4,0.9-1,1.6-1.7,2.2c-0.7,0.5-1.7,0.8-2.9,0.8c-0.7,0-1.4-0.1-1.9-0.3c-0.6-0.2-1-0.5-1.4-0.8
		c-0.5-0.5-0.8-1.1-0.9-1.8c-0.1-0.7-0.2-1.6-0.2-2.8V12.9h-2.6v-0.7h2.6V8.2c1,0,2-0.1,2.8-0.3C563.8,7.7,564.6,7.4,565.4,6.9z"/>
	<path d="M577.1,11.9v14.4c0,0.9,0.1,1.5,0.4,1.9c0.3,0.3,0.8,0.5,1.5,0.5v0.7c-0.4,0-1.1,0-1.9-0.1c-0.9,0-1.7,0-2.6,0
		c-0.9,0-1.8,0-2.7,0c-0.9,0-1.6,0.1-2.1,0.1v-0.7c0.7,0,1.2-0.2,1.5-0.5c0.3-0.3,0.4-1,0.4-1.9V15.9c0-1-0.1-1.7-0.4-2.2
		c-0.3-0.5-0.8-0.7-1.6-0.7v-0.7c0.7,0.1,1.4,0.1,2,0.1c1,0,1.9,0,2.8-0.1C575.6,12.2,576.4,12.1,577.1,11.9z M574.2,3.7
		c1,0,1.8,0.2,2.4,0.7s0.9,1.1,0.9,2c0,0.9-0.3,1.5-0.9,2s-1.4,0.7-2.4,0.7c-1,0-1.8-0.2-2.4-0.7c-0.6-0.5-0.9-1.1-0.9-2
		c0-0.9,0.3-1.5,0.9-2C572.4,3.9,573.2,3.7,574.2,3.7z"/>
	<path d="M584.9,29.6c-1,0-1.8-0.2-2.5-0.6s-1.1-0.9-1.4-1.5c-0.3-0.6-0.5-1.3-0.5-2c0-0.9,0.2-1.7,0.6-2.3c0.4-0.6,1-1.1,1.7-1.4
		c0.7-0.4,1.4-0.7,2.1-0.9c0.7-0.2,1.5-0.5,2.1-0.7c0.7-0.2,1.2-0.5,1.6-0.8c0.4-0.3,0.6-0.7,0.6-1.2v-2.7c0-0.5-0.1-0.9-0.2-1.4
		c-0.1-0.4-0.4-0.8-0.8-1.1c-0.4-0.3-0.9-0.4-1.5-0.4c-0.4,0-0.8,0.1-1.2,0.2c-0.4,0.1-0.7,0.3-1,0.5c0.7,0.2,1.2,0.6,1.6,1.1
		c0.3,0.5,0.5,1,0.5,1.6c0,0.8-0.3,1.5-0.8,1.9c-0.6,0.5-1.2,0.7-2,0.7c-0.8,0-1.5-0.3-1.9-0.8c-0.5-0.5-0.7-1.2-0.7-1.9
		c0-0.7,0.2-1.2,0.5-1.7c0.3-0.4,0.8-0.9,1.4-1.2c0.6-0.4,1.4-0.6,2.3-0.8c0.9-0.2,1.9-0.3,2.9-0.3c1,0,2,0.1,2.8,0.3
		c0.9,0.2,1.6,0.6,2.2,1.2c0.5,0.5,0.8,1.1,0.9,1.8c0.1,0.7,0.2,1.6,0.2,2.8v8.9c0,0.5,0,0.9,0.1,1.1c0.1,0.2,0.3,0.3,0.5,0.3
		c0.2,0,0.4-0.1,0.6-0.2c0.2-0.1,0.4-0.2,0.5-0.4l0.4,0.6c-0.5,0.4-1.1,0.7-1.7,0.9c-0.7,0.2-1.4,0.3-2.1,0.3
		c-0.9,0-1.6-0.1-2.1-0.3c-0.5-0.2-0.8-0.5-1.1-0.9c-0.2-0.4-0.3-0.8-0.3-1.3c-0.5,0.8-1.1,1.4-1.8,1.9
		C586.9,29.3,586,29.6,584.9,29.6z M587.7,27.2c0.4,0,0.7-0.1,0.9-0.2c0.3-0.1,0.5-0.4,0.8-0.7v-6.8c-0.2,0.3-0.4,0.6-0.7,0.9
		c-0.3,0.3-0.6,0.5-0.9,0.8c-0.3,0.3-0.6,0.6-0.9,0.9c-0.3,0.3-0.5,0.7-0.7,1.2s-0.3,1-0.3,1.6c0,0.9,0.2,1.5,0.5,1.8
		C586.7,27,587.1,27.2,587.7,27.2z"/>
	<path d="M610.3,11.8c1,0,1.7,0.1,2.3,0.4c0.6,0.2,1,0.5,1.3,0.9c0.4,0.4,0.6,1,0.8,1.6c0.2,0.7,0.2,1.5,0.2,2.7v8.9
		c0,0.9,0.1,1.5,0.4,1.9c0.3,0.3,0.8,0.5,1.5,0.5v0.7c-0.4,0-1.1,0-2-0.1c-0.9,0-1.7,0-2.5,0c-0.9,0-1.8,0-2.6,0
		c-0.8,0-1.5,0.1-1.9,0.1v-0.7c0.6,0,1-0.2,1.3-0.5c0.2-0.3,0.4-1,0.4-1.9V15.8c0-0.5-0.1-0.9-0.2-1.3c-0.1-0.4-0.3-0.6-0.6-0.8
		c-0.3-0.2-0.6-0.3-1.1-0.3c-0.5,0-1,0.1-1.4,0.4c-0.4,0.3-0.8,0.6-1,1.1c-0.3,0.5-0.4,1-0.4,1.6v9.8c0,0.9,0.1,1.5,0.4,1.9
		c0.2,0.3,0.7,0.5,1.3,0.5v0.7c-0.4,0-1,0-1.8-0.1c-0.8,0-1.6,0-2.4,0c-0.9,0-1.8,0-2.7,0c-0.9,0-1.6,0.1-2,0.1v-0.7
		c0.7,0,1.2-0.2,1.5-0.5c0.3-0.3,0.4-1,0.4-1.9V15.9c0-1-0.1-1.7-0.4-2.2c-0.3-0.5-0.8-0.7-1.5-0.7v-0.7c0.7,0.1,1.4,0.1,2,0.1
		c1,0,1.9,0,2.8-0.1c0.9-0.1,1.7-0.2,2.5-0.3v2.7c0.5-1,1.2-1.7,2.2-2.1C608.1,12,609.1,11.8,610.3,11.8z"/>
	<path d="M342.7,45.5c-0.1,1.1-0.1,2.1-0.2,3c0,1,0,1.7,0,2.2c0,0.5,0,0.9,0,1.3c0,0.4,0,0.8,0.1,1.1h-0.8c-0.3-1.8-0.8-3.1-1.4-4.2
		c-0.6-1-1.3-1.7-2-2.2c-0.8-0.4-1.6-0.6-2.5-0.6h-0.8c-0.6,0-1.1,0-1.4,0.1c-0.3,0.1-0.5,0.3-0.6,0.6s-0.1,0.8-0.1,1.4v16.6
		c0,0.9,0.1,1.5,0.3,1.9c0.2,0.4,0.5,0.7,1.1,0.9c0.5,0.1,1.3,0.2,2.3,0.2v0.7c-0.7,0-1.7,0-2.8-0.1c-1.1,0-2.3,0-3.6,0
		c-1,0-2,0-2.9,0c-1,0-1.8,0-2.7,0.1v-0.7c0.7,0,1.2-0.1,1.5-0.3c0.3-0.1,0.6-0.4,0.7-0.8c0.1-0.4,0.2-1,0.2-1.8V49
		c0-0.8-0.1-1.4-0.2-1.8c-0.1-0.4-0.4-0.6-0.7-0.8c-0.3-0.1-0.9-0.2-1.5-0.2v-0.7c0.9,0,1.9,0,3,0c1,0,2.1,0,3.1,0c1,0,2,0,2.9,0
		s1.6,0,2.2,0c1,0,2.2,0,3.4,0C340.5,45.6,341.7,45.6,342.7,45.5z M337.8,56.9v0.7H332v-0.7H337.8z M338.7,52.5
		c-0.1,1.3-0.1,2.2-0.1,2.9c0,0.7,0,1.3,0,1.8c0,0.5,0,1.2,0,1.8c0,0.7,0.1,1.6,0.2,2.9h-0.8c-0.1-0.8-0.4-1.5-0.7-2.2
		c-0.4-0.7-0.8-1.2-1.4-1.6c-0.6-0.4-1.3-0.6-2.2-0.6v-0.7c0.6,0,1.2-0.1,1.7-0.4s0.9-0.6,1.2-1.1c0.3-0.4,0.6-0.9,0.8-1.4
		s0.4-1,0.5-1.4H338.7z"/>
	<path d="M348.2,69.1c-1,0-1.8-0.2-2.5-0.6s-1.1-0.9-1.4-1.5c-0.3-0.6-0.5-1.3-0.5-2c0-0.9,0.2-1.7,0.6-2.3c0.4-0.6,1-1.1,1.7-1.4
		c0.7-0.4,1.4-0.7,2.1-0.9c0.7-0.2,1.5-0.5,2.1-0.7c0.7-0.2,1.2-0.5,1.6-0.8c0.4-0.3,0.6-0.7,0.6-1.2v-2.7c0-0.5-0.1-0.9-0.2-1.4
		c-0.1-0.4-0.4-0.8-0.8-1.1c-0.4-0.3-0.9-0.4-1.5-0.4c-0.4,0-0.8,0.1-1.2,0.2c-0.4,0.1-0.7,0.3-1,0.5c0.7,0.2,1.2,0.6,1.6,1.1
		c0.3,0.5,0.5,1,0.5,1.6c0,0.8-0.3,1.5-0.8,1.9c-0.6,0.5-1.2,0.7-2,0.7c-0.8,0-1.5-0.3-1.9-0.8c-0.5-0.5-0.7-1.2-0.7-1.9
		c0-0.7,0.2-1.2,0.5-1.7c0.3-0.5,0.8-0.9,1.4-1.2c0.6-0.4,1.4-0.6,2.3-0.8c0.9-0.2,1.9-0.3,2.9-0.3c1,0,2,0.1,2.8,0.3
		c0.9,0.2,1.6,0.6,2.2,1.2c0.5,0.5,0.8,1.1,0.9,1.8c0.1,0.7,0.2,1.6,0.2,2.8v8.9c0,0.5,0,0.9,0.1,1.1s0.3,0.3,0.5,0.3
		c0.2,0,0.4-0.1,0.6-0.2c0.2-0.1,0.4-0.2,0.5-0.4l0.4,0.6c-0.5,0.4-1.1,0.7-1.7,0.9c-0.7,0.2-1.4,0.3-2.1,0.3
		c-0.9,0-1.6-0.1-2.1-0.3c-0.5-0.2-0.8-0.5-1.1-0.9c-0.2-0.4-0.3-0.8-0.3-1.3c-0.5,0.8-1.1,1.4-1.8,1.9
		C350.2,68.8,349.3,69.1,348.2,69.1z M350.9,66.7c0.4,0,0.7-0.1,0.9-0.2c0.3-0.1,0.5-0.4,0.8-0.7v-6.8c-0.2,0.3-0.4,0.6-0.7,0.9
		c-0.3,0.3-0.6,0.5-0.9,0.8c-0.3,0.3-0.6,0.6-0.9,0.9c-0.3,0.3-0.5,0.7-0.7,1.2c-0.2,0.5-0.3,1-0.3,1.6c0,0.9,0.2,1.5,0.5,1.8
		C349.9,66.5,350.3,66.7,350.9,66.7z"/>
	<path d="M368.2,51.4v14.4c0,0.9,0.1,1.5,0.4,1.9c0.3,0.3,0.8,0.5,1.5,0.5v0.7c-0.4,0-1.1,0-1.9-0.1c-0.9,0-1.7,0-2.6,0
		c-0.9,0-1.8,0-2.7,0c-0.9,0-1.6,0.1-2.1,0.1v-0.7c0.7,0,1.2-0.2,1.5-0.5c0.3-0.3,0.4-1,0.4-1.9V55.4c0-1-0.1-1.7-0.4-2.2
		c-0.3-0.5-0.8-0.7-1.6-0.7v-0.7c0.7,0.1,1.4,0.1,2,0.1c1,0,1.9,0,2.8-0.1C366.7,51.7,367.5,51.6,368.2,51.4z M365.3,43.2
		c1,0,1.8,0.2,2.4,0.7s0.9,1.1,0.9,2s-0.3,1.5-0.9,2s-1.4,0.7-2.4,0.7c-1,0-1.8-0.2-2.4-0.7c-0.6-0.5-0.9-1.1-0.9-2s0.3-1.5,0.9-2
		C363.5,43.4,364.3,43.2,365.3,43.2z"/>
	<path d="M378.7,46.4v5.4h3.6v0.7h-3.6v13.5c0,0.5,0.1,0.9,0.3,1.2c0.2,0.2,0.5,0.3,0.9,0.3c0.3,0,0.7-0.1,1-0.3
		c0.4-0.2,0.7-0.6,1-1.1l0.5,0.3c-0.4,0.9-1,1.6-1.7,2.2c-0.7,0.5-1.7,0.8-2.9,0.8c-0.7,0-1.4-0.1-1.9-0.3c-0.6-0.2-1-0.5-1.4-0.8
		c-0.5-0.5-0.8-1.1-0.9-1.8c-0.1-0.7-0.2-1.6-0.2-2.8V52.4h-2.6v-0.7h2.6v-4.1c1,0,2-0.1,2.8-0.3C377.1,47.2,377.9,46.9,378.7,46.4z
		"/>
	<path d="M390.3,43.1v11c0.5-1,1.3-1.7,2.2-2.1c0.9-0.4,2-0.6,3.1-0.6c1,0,1.7,0.1,2.3,0.4s1,0.5,1.3,0.9c0.4,0.4,0.6,1,0.8,1.6
		c0.2,0.7,0.2,1.5,0.2,2.7v8.9c0,0.9,0.1,1.5,0.4,1.9c0.3,0.3,0.8,0.5,1.5,0.5v0.7c-0.4,0-1.1,0-1.9-0.1c-0.9,0-1.7,0-2.6,0
		c-0.9,0-1.7,0-2.6,0c-0.8,0-1.5,0.1-1.9,0.1v-0.7c0.6,0,1-0.2,1.3-0.5c0.2-0.3,0.4-1,0.4-1.9V55.3c0-0.5-0.1-0.9-0.2-1.3
		c-0.1-0.4-0.3-0.6-0.5-0.8c-0.3-0.2-0.6-0.3-1.1-0.3c-0.5,0-1,0.1-1.4,0.4s-0.8,0.6-1,1.1c-0.3,0.5-0.4,1-0.4,1.6v9.8
		c0,0.9,0.1,1.5,0.4,1.9c0.3,0.3,0.7,0.5,1.3,0.5v0.7c-0.4,0-1,0-1.8-0.1c-0.8,0-1.6,0-2.4,0c-0.9,0-1.8,0-2.7,0
		c-0.9,0-1.6,0.1-2.1,0.1v-0.7c0.7,0,1.2-0.2,1.5-0.5c0.3-0.3,0.4-1,0.4-1.9V47c0-1-0.1-1.7-0.4-2.2s-0.8-0.7-1.6-0.7v-0.7
		c0.7,0.1,1.4,0.1,2,0.1c1,0,2,0,2.8-0.1C388.7,43.4,389.5,43.3,390.3,43.1z"/>
	<path d="M421.9,45.5v0.7c-0.7,0-1.2,0.1-1.5,0.2c-0.4,0.1-0.6,0.4-0.7,0.8c-0.1,0.4-0.2,1-0.2,1.8v16.3c0,0.8,0.1,1.4,0.2,1.8
		c0.1,0.4,0.4,0.7,0.7,0.8c0.3,0.1,0.9,0.2,1.5,0.3v0.7c-0.6,0-1.4-0.1-2.4-0.1s-1.9,0-2.9,0c-1.1,0-2.2,0-3.1,0s-1.8,0-2.4,0.1
		v-0.7c0.7,0,1.2-0.1,1.5-0.3c0.3-0.1,0.6-0.4,0.7-0.8c0.1-0.4,0.2-1,0.2-1.8V49c0-0.8-0.1-1.4-0.2-1.8c-0.1-0.4-0.4-0.6-0.7-0.8
		c-0.3-0.1-0.9-0.2-1.5-0.2v-0.7c0.6,0,1.4,0,2.4,0.1c1,0,2,0,3.1,0c1,0,1.9,0,2.9,0C420.5,45.6,421.3,45.6,421.9,45.5z"/>
	<path d="M436.3,51.3c1,0,1.7,0.1,2.3,0.4c0.6,0.2,1,0.5,1.3,0.9c0.4,0.4,0.6,1,0.8,1.6c0.2,0.7,0.2,1.5,0.2,2.7v8.9
		c0,0.9,0.1,1.5,0.4,1.9c0.3,0.3,0.8,0.5,1.5,0.5v0.7c-0.4,0-1.1,0-2-0.1c-0.9,0-1.7,0-2.5,0c-0.9,0-1.8,0-2.6,0
		c-0.8,0-1.5,0.1-1.9,0.1v-0.7c0.6,0,1-0.2,1.3-0.5c0.2-0.3,0.4-1,0.4-1.9V55.3c0-0.5-0.1-0.9-0.2-1.3c-0.1-0.4-0.3-0.6-0.6-0.8
		c-0.3-0.2-0.6-0.3-1.1-0.3c-0.5,0-1,0.1-1.4,0.4c-0.4,0.3-0.8,0.6-1,1.1c-0.3,0.5-0.4,1-0.4,1.6v9.8c0,0.9,0.1,1.5,0.4,1.9
		c0.2,0.3,0.7,0.5,1.3,0.5v0.7c-0.4,0-1,0-1.8-0.1c-0.8,0-1.6,0-2.4,0c-0.9,0-1.8,0-2.7,0c-0.9,0-1.6,0.1-2,0.1v-0.7
		c0.7,0,1.2-0.2,1.5-0.5c0.3-0.3,0.4-1,0.4-1.9V55.4c0-1-0.1-1.7-0.4-2.2c-0.3-0.5-0.8-0.7-1.5-0.7v-0.7c0.7,0.1,1.4,0.1,2,0.1
		c1,0,1.9,0,2.8-0.1c0.9-0.1,1.7-0.2,2.5-0.3v2.7c0.5-1,1.2-1.7,2.2-2.1C434.1,51.5,435.1,51.3,436.3,51.3z"/>
	<path d="M451.2,46.4v5.4h3.6v0.7h-3.6v13.5c0,0.5,0.1,0.9,0.3,1.2c0.2,0.2,0.5,0.3,0.9,0.3c0.3,0,0.7-0.1,1-0.3
		c0.4-0.2,0.7-0.6,1-1.1l0.5,0.3c-0.4,0.9-1,1.6-1.7,2.2c-0.7,0.5-1.7,0.8-2.9,0.8c-0.7,0-1.4-0.1-1.9-0.3c-0.6-0.2-1-0.5-1.4-0.8
		c-0.5-0.5-0.8-1.1-0.9-1.8c-0.1-0.7-0.2-1.6-0.2-2.8V52.4h-2.6v-0.7h2.6v-4.1c1,0,2-0.1,2.8-0.3C449.6,47.2,450.4,46.9,451.2,46.4z
		"/>
	<path d="M464.1,51.3c1.9,0,3.4,0.6,4.5,1.7c1.1,1.1,1.6,3,1.6,5.6h-10.6l0-0.6h6.1c0-1.1,0-2.1-0.1-3c-0.1-0.9-0.3-1.6-0.6-2.2
		c-0.3-0.5-0.7-0.8-1.2-0.8c-0.7,0-1.2,0.5-1.7,1.4c-0.5,0.9-0.7,2.5-0.9,4.8l0.1,0.2c0,0.2-0.1,0.5-0.1,0.7c0,0.3,0,0.5,0,0.8
		c0,1.5,0.2,2.7,0.6,3.6c0.4,0.9,0.9,1.5,1.5,1.9s1.3,0.6,1.9,0.6c0.4,0,0.8-0.1,1.3-0.2c0.5-0.1,0.9-0.3,1.4-0.7
		c0.5-0.4,1-0.9,1.4-1.5l0.6,0.2c-0.2,0.9-0.7,1.7-1.2,2.5c-0.6,0.8-1.3,1.5-2.2,2c-0.9,0.5-2,0.8-3.3,0.8c-1.4,0-2.7-0.3-3.9-0.9
		c-1.1-0.6-2-1.6-2.7-2.9c-0.7-1.3-1-3-1-5.1c0-2.1,0.4-3.8,1.1-5.1c0.7-1.3,1.7-2.3,3-3C461.1,51.7,462.5,51.3,464.1,51.3z"/>
	<path d="M483.4,51.3c0.7,0,1.3,0.2,1.8,0.5s0.8,0.7,1,1.2s0.3,1,0.3,1.5c0,0.9-0.3,1.6-0.8,2.2c-0.5,0.5-1.2,0.8-2,0.8
		c-0.9,0-1.5-0.2-2-0.6c-0.5-0.4-0.7-0.9-0.7-1.6c0-0.7,0.1-1.2,0.4-1.7c0.3-0.4,0.7-0.8,1.1-1.1c-0.3,0-0.6,0-1,0.1
		c-0.4,0.1-0.7,0.3-1,0.5s-0.6,0.5-0.8,0.9c-0.2,0.3-0.4,0.7-0.5,1.1c-0.1,0.4-0.2,0.8-0.2,1.2v9.3c0,1.1,0.2,1.8,0.7,2.1
		c0.5,0.4,1.2,0.6,2.3,0.6v0.7c-0.5,0-1.3,0-2.2-0.1c-1,0-2,0-3.1,0c-0.9,0-1.9,0-2.8,0c-1,0-1.7,0.1-2.1,0.1v-0.7
		c0.7,0,1.2-0.2,1.5-0.5c0.3-0.3,0.4-1,0.4-1.9V55.4c0-1-0.1-1.7-0.4-2.2c-0.3-0.5-0.8-0.7-1.5-0.7v-0.7c0.7,0.1,1.4,0.1,2,0.1
		c1,0,1.9,0,2.8-0.1c0.9-0.1,1.7-0.2,2.5-0.3v2.7c0.3-0.6,0.6-1.1,1-1.5c0.4-0.4,0.9-0.7,1.5-1S482.8,51.3,483.4,51.3z"/>
	<path d="M500,51.3c1,0,1.7,0.1,2.3,0.4c0.6,0.2,1,0.5,1.3,0.9c0.4,0.4,0.6,1,0.8,1.6c0.2,0.7,0.2,1.5,0.2,2.7v8.9
		c0,0.9,0.1,1.5,0.4,1.9c0.3,0.3,0.8,0.5,1.5,0.5v0.7c-0.4,0-1.1,0-2-0.1c-0.9,0-1.7,0-2.5,0c-0.9,0-1.8,0-2.6,0
		c-0.8,0-1.5,0.1-1.9,0.1v-0.7c0.6,0,1-0.2,1.3-0.5c0.2-0.3,0.4-1,0.4-1.9V55.3c0-0.5-0.1-0.9-0.2-1.3c-0.1-0.4-0.3-0.6-0.6-0.8
		c-0.3-0.2-0.6-0.3-1.1-0.3c-0.5,0-1,0.1-1.4,0.4c-0.4,0.3-0.8,0.6-1,1.1c-0.3,0.5-0.4,1-0.4,1.6v9.8c0,0.9,0.1,1.5,0.4,1.9
		c0.2,0.3,0.7,0.5,1.3,0.5v0.7c-0.4,0-1,0-1.8-0.1c-0.8,0-1.6,0-2.4,0c-0.9,0-1.8,0-2.7,0c-0.9,0-1.6,0.1-2,0.1v-0.7
		c0.7,0,1.2-0.2,1.5-0.5c0.3-0.3,0.4-1,0.4-1.9V55.4c0-1-0.1-1.7-0.4-2.2c-0.3-0.5-0.8-0.7-1.5-0.7v-0.7c0.7,0.1,1.4,0.1,2,0.1
		c1,0,1.9,0,2.8-0.1c0.9-0.1,1.7-0.2,2.5-0.3v2.7c0.5-1,1.2-1.7,2.2-2.1C497.8,51.5,498.8,51.3,500,51.3z"/>
	<path d="M512.2,69.1c-1,0-1.8-0.2-2.5-0.6s-1.1-0.9-1.4-1.5c-0.3-0.6-0.5-1.3-0.5-2c0-0.9,0.2-1.7,0.6-2.3c0.4-0.6,1-1.1,1.7-1.4
		c0.7-0.4,1.4-0.7,2.1-0.9c0.7-0.2,1.5-0.5,2.1-0.7c0.7-0.2,1.2-0.5,1.6-0.8c0.4-0.3,0.6-0.7,0.6-1.2v-2.7c0-0.5-0.1-0.9-0.2-1.4
		c-0.1-0.4-0.4-0.8-0.8-1.1c-0.4-0.3-0.9-0.4-1.5-0.4c-0.4,0-0.8,0.1-1.2,0.2c-0.4,0.1-0.7,0.3-1,0.5c0.7,0.2,1.2,0.6,1.6,1.1
		c0.3,0.5,0.5,1,0.5,1.6c0,0.8-0.3,1.5-0.8,1.9c-0.6,0.5-1.2,0.7-2,0.7c-0.8,0-1.5-0.3-1.9-0.8c-0.5-0.5-0.7-1.2-0.7-1.9
		c0-0.7,0.2-1.2,0.5-1.7c0.3-0.5,0.8-0.9,1.4-1.2c0.6-0.4,1.4-0.6,2.3-0.8c0.9-0.2,1.9-0.3,2.9-0.3c1,0,2,0.1,2.8,0.3
		c0.9,0.2,1.6,0.6,2.2,1.2c0.5,0.5,0.8,1.1,0.9,1.8c0.1,0.7,0.2,1.6,0.2,2.8v8.9c0,0.5,0,0.9,0.1,1.1s0.3,0.3,0.5,0.3
		c0.2,0,0.4-0.1,0.6-0.2c0.2-0.1,0.4-0.2,0.5-0.4l0.4,0.6c-0.5,0.4-1.1,0.7-1.7,0.9c-0.7,0.2-1.4,0.3-2.1,0.3
		c-0.9,0-1.6-0.1-2.1-0.3c-0.5-0.2-0.8-0.5-1.1-0.9c-0.2-0.4-0.3-0.8-0.3-1.3c-0.5,0.8-1.1,1.4-1.8,1.9
		C514.2,68.8,513.3,69.1,512.2,69.1z M515,66.7c0.4,0,0.7-0.1,0.9-0.2c0.3-0.1,0.5-0.4,0.8-0.7v-6.8c-0.2,0.3-0.4,0.6-0.7,0.9
		c-0.3,0.3-0.6,0.5-0.9,0.8c-0.3,0.3-0.6,0.6-0.9,0.9c-0.3,0.3-0.5,0.7-0.7,1.2c-0.2,0.5-0.3,1-0.3,1.6c0,0.9,0.2,1.5,0.5,1.8
		C514,66.5,514.4,66.7,515,66.7z"/>
	<path d="M532.2,46.4v5.4h3.6v0.7h-3.6v13.5c0,0.5,0.1,0.9,0.3,1.2c0.2,0.2,0.5,0.3,0.9,0.3c0.3,0,0.7-0.1,1-0.3
		c0.4-0.2,0.7-0.6,1-1.1l0.5,0.3c-0.4,0.9-1,1.6-1.7,2.2c-0.7,0.5-1.7,0.8-2.9,0.8c-0.7,0-1.4-0.1-1.9-0.3c-0.6-0.2-1-0.5-1.4-0.8
		c-0.5-0.5-0.8-1.1-0.9-1.8c-0.1-0.7-0.2-1.6-0.2-2.8V52.4h-2.6v-0.7h2.6v-4.1c1,0,2-0.1,2.8-0.3C530.5,47.2,531.4,46.9,532.2,46.4z
		"/>
	<path d="M543.9,51.4v14.4c0,0.9,0.1,1.5,0.4,1.9c0.3,0.3,0.8,0.5,1.5,0.5v0.7c-0.4,0-1.1,0-1.9-0.1c-0.9,0-1.7,0-2.6,0
		c-0.9,0-1.8,0-2.7,0c-0.9,0-1.6,0.1-2.1,0.1v-0.7c0.7,0,1.2-0.2,1.5-0.5c0.3-0.3,0.4-1,0.4-1.9V55.4c0-1-0.1-1.7-0.4-2.2
		c-0.3-0.5-0.8-0.7-1.6-0.7v-0.7c0.7,0.1,1.4,0.1,2,0.1c1,0,1.9,0,2.8-0.1C542.3,51.7,543.1,51.6,543.9,51.4z M541,43.2
		c1,0,1.8,0.2,2.4,0.7s0.9,1.1,0.9,2s-0.3,1.5-0.9,2s-1.4,0.7-2.4,0.7c-1,0-1.8-0.2-2.4-0.7c-0.6-0.5-0.9-1.1-0.9-2s0.3-1.5,0.9-2
		C539.1,43.4,539.9,43.2,541,43.2z"/>
	<path d="M555.8,51.3c1.6,0,3.1,0.3,4.3,0.9c1.2,0.6,2.2,1.5,2.9,2.8c0.7,1.3,1,3.1,1,5.3c0,2.2-0.3,4-1,5.3
		c-0.7,1.3-1.7,2.3-2.9,2.8c-1.2,0.6-2.7,0.9-4.3,0.9c-1.6,0-3.1-0.3-4.3-0.9c-1.2-0.6-2.2-1.5-2.9-2.8c-0.7-1.3-1.1-3.1-1.1-5.3
		c0-2.2,0.4-4,1.1-5.3c0.7-1.3,1.7-2.3,2.9-2.8C552.8,51.6,554.2,51.3,555.8,51.3z M555.8,52c-0.8,0-1.4,0.7-1.9,2s-0.8,3.4-0.8,6.4
		c0,2.9,0.3,5.1,0.8,6.4s1.2,2,1.9,2c0.8,0,1.4-0.7,1.9-2s0.8-3.4,0.8-6.4c0-2.9-0.3-5.1-0.8-6.4S556.6,52,555.8,52z"/>
	<path d="M578.6,51.3c1,0,1.7,0.1,2.3,0.4c0.6,0.2,1,0.5,1.3,0.9c0.4,0.4,0.6,1,0.8,1.6c0.2,0.7,0.2,1.5,0.2,2.7v8.9
		c0,0.9,0.1,1.5,0.4,1.9c0.3,0.3,0.8,0.5,1.5,0.5v0.7c-0.4,0-1.1,0-2-0.1c-0.9,0-1.7,0-2.5,0c-0.9,0-1.8,0-2.6,0
		c-0.8,0-1.5,0.1-1.9,0.1v-0.7c0.6,0,1-0.2,1.3-0.5c0.2-0.3,0.4-1,0.4-1.9V55.3c0-0.5-0.1-0.9-0.2-1.3c-0.1-0.4-0.3-0.6-0.6-0.8
		c-0.3-0.2-0.6-0.3-1.1-0.3c-0.5,0-1,0.1-1.4,0.4c-0.4,0.3-0.8,0.6-1,1.1c-0.3,0.5-0.4,1-0.4,1.6v9.8c0,0.9,0.1,1.5,0.4,1.9
		c0.2,0.3,0.7,0.5,1.3,0.5v0.7c-0.4,0-1,0-1.8-0.1c-0.8,0-1.6,0-2.4,0c-0.9,0-1.8,0-2.7,0c-0.9,0-1.6,0.1-2,0.1v-0.7
		c0.7,0,1.2-0.2,1.5-0.5c0.3-0.3,0.4-1,0.4-1.9V55.4c0-1-0.1-1.7-0.4-2.2c-0.3-0.5-0.8-0.7-1.5-0.7v-0.7c0.7,0.1,1.4,0.1,2,0.1
		c1,0,1.9,0,2.8-0.1c0.9-0.1,1.7-0.2,2.5-0.3v2.7c0.5-1,1.2-1.7,2.2-2.1C576.3,51.5,577.4,51.3,578.6,51.3z"/>
	<path d="M590.8,69.1c-1,0-1.8-0.2-2.5-0.6s-1.1-0.9-1.4-1.5c-0.3-0.6-0.5-1.3-0.5-2c0-0.9,0.2-1.7,0.6-2.3c0.4-0.6,1-1.1,1.7-1.4
		c0.7-0.4,1.4-0.7,2.1-0.9c0.7-0.2,1.5-0.5,2.1-0.7c0.7-0.2,1.2-0.5,1.6-0.8c0.4-0.3,0.6-0.7,0.6-1.2v-2.7c0-0.5-0.1-0.9-0.2-1.4
		c-0.1-0.4-0.4-0.8-0.8-1.1c-0.4-0.3-0.9-0.4-1.5-0.4c-0.4,0-0.8,0.1-1.2,0.2c-0.4,0.1-0.7,0.3-1,0.5c0.7,0.2,1.2,0.6,1.6,1.1
		c0.3,0.5,0.5,1,0.5,1.6c0,0.8-0.3,1.5-0.8,1.9c-0.6,0.5-1.2,0.7-2,0.7c-0.8,0-1.5-0.3-1.9-0.8c-0.5-0.5-0.7-1.2-0.7-1.9
		c0-0.7,0.2-1.2,0.5-1.7c0.3-0.5,0.8-0.9,1.4-1.2c0.6-0.4,1.4-0.6,2.3-0.8c0.9-0.2,1.9-0.3,2.9-0.3c1,0,2,0.1,2.8,0.3
		c0.9,0.2,1.6,0.6,2.2,1.2c0.5,0.5,0.8,1.1,0.9,1.8c0.1,0.7,0.2,1.6,0.2,2.8v8.9c0,0.5,0,0.9,0.1,1.1s0.3,0.3,0.5,0.3
		c0.2,0,0.4-0.1,0.6-0.2c0.2-0.1,0.4-0.2,0.5-0.4l0.4,0.6c-0.5,0.4-1.1,0.7-1.7,0.9c-0.7,0.2-1.4,0.3-2.1,0.3
		c-0.9,0-1.6-0.1-2.1-0.3c-0.5-0.2-0.8-0.5-1.1-0.9c-0.2-0.4-0.3-0.8-0.3-1.3c-0.5,0.8-1.1,1.4-1.8,1.9
		C592.8,68.8,591.9,69.1,590.8,69.1z M593.5,66.7c0.4,0,0.7-0.1,0.9-0.2c0.3-0.1,0.5-0.4,0.8-0.7v-6.8c-0.2,0.3-0.4,0.6-0.7,0.9
		c-0.3,0.3-0.6,0.5-0.9,0.8c-0.3,0.3-0.6,0.6-0.9,0.9c-0.3,0.3-0.5,0.7-0.7,1.2c-0.2,0.5-0.3,1-0.3,1.6c0,0.9,0.2,1.5,0.5,1.8
		C592.5,66.5,593,66.7,593.5,66.7z"/>
	<path d="M610.8,43.1v22.7c0,0.9,0.1,1.5,0.4,1.9c0.3,0.3,0.8,0.5,1.5,0.5v0.7c-0.4,0-1.1,0-1.9-0.1c-0.9,0-1.7,0-2.6,0
		c-0.9,0-1.8,0-2.7,0c-0.9,0-1.6,0.1-2.1,0.1v-0.7c0.7,0,1.2-0.2,1.5-0.5c0.3-0.3,0.4-1,0.4-1.9V47c0-1-0.1-1.7-0.4-2.2
		c-0.3-0.5-0.8-0.7-1.6-0.7v-0.7c0.7,0.1,1.4,0.1,2,0.1c1,0,2,0,2.8-0.1C609.2,43.4,610,43.3,610.8,43.1z"/>
</g>
</svg>
