<svg xmlns="http://www.w3.org/2000/svg" viewBox="0 0 296.28 65.71"><title>pcfi-black</title><g id="Layer_2" data-name="Layer 2"><g id="Layer_1-2" data-name="Layer 1"><path d="M0,2.44l2.37.06,3,0c1.08,0,2.12,0,3.11,0l2.13,0q4.8,0,7.16,1.81A5.63,5.63,0,0,1,20.08,9a7.21,7.21,0,0,1-.48,2.49A6.24,6.24,0,0,1,18,13.84a8.3,8.3,0,0,1-3.13,1.8,15.5,15.5,0,0,1-5,.69H6.42v-.66H9.51a3.85,3.85,0,0,0,2.75-.89,4.55,4.55,0,0,0,1.29-2.34,13.38,13.38,0,0,0,.34-3.12,10.29,10.29,0,0,0-.82-4.68,2.91,2.91,0,0,0-2.8-1.55c-.81,0-1.33.19-1.56.56a4.94,4.94,0,0,0-.35,2.28V22a5.35,5.35,0,0,0,.27,2,1.4,1.4,0,0,0,1,.84A10.93,10.93,0,0,0,12,25v.72l-2.8-.06c-1.14,0-2.34,0-3.59,0-1,0-2,0-2.91,0L0,25.74v-.65a5.72,5.72,0,0,0,1.53-.27A1.13,1.13,0,0,0,2.22,24a6.54,6.54,0,0,0,.18-1.78V5.93a6.56,6.56,0,0,0-.18-1.8,1.19,1.19,0,0,0-.69-.79A4.82,4.82,0,0,0,0,3.09Z"/><path d="M29.7,8.23A10.1,10.1,0,0,1,34,9.1,6.2,6.2,0,0,1,36.92,12a11.4,11.4,0,0,1,1,5.27,11.35,11.35,0,0,1-1,5.26A6.2,6.2,0,0,1,34,25.33a10.1,10.1,0,0,1-4.32.87,10,10,0,0,1-4.3-.87,6.27,6.27,0,0,1-2.91-2.85,11.09,11.09,0,0,1-1.06-5.26A11.13,11.13,0,0,1,22.49,12,6.27,6.27,0,0,1,25.4,9.1,10,10,0,0,1,29.7,8.23Zm0,.66c-.77,0-1.42.65-1.93,2A18.74,18.74,0,0,0,27,17.22a18.78,18.78,0,0,0,.77,6.37c.51,1.3,1.16,2,1.93,2s1.43-.66,1.94-2a19.43,19.43,0,0,0,.75-6.37,19.39,19.39,0,0,0-.75-6.37C31.13,9.54,30.49,8.89,29.7,8.89Z"/><path d="M47.87,8.69v.69a8.19,8.19,0,0,0-1.22.08.9.9,0,0,0-.68.42,1.5,1.5,0,0,0,0,1l3,9.78-.49.59L52.05,8.69l.69.33L48,25.78a11.73,11.73,0,0,0-1.33-.07,11.61,11.61,0,0,0-1.33.07L40.23,11.23c-.31-.88-.64-1.41-1-1.58a2.2,2.2,0,0,0-.91-.27V8.69c.79.07,1.61.12,2.47.15s1.79.05,2.8.05c.68,0,1.4,0,2.15-.07Zm16.88,0v.69a2.9,2.9,0,0,0-1.2.81,6.16,6.16,0,0,0-1.1,2.19L58.2,25.78a11.5,11.5,0,0,0-1.31-.07,12.46,12.46,0,0,0-1.35.07L51.16,13.37l.92-4.68c.48,0,1,0,1.48,0s1,0,1.48,0l4.28,13.2-.39-.56,1.87-6A8.44,8.44,0,0,0,61.28,12a3,3,0,0,0-.85-1.93,2.84,2.84,0,0,0-1.76-.71V8.69l1.15.07,1.35.05h1l1.38,0A10.41,10.41,0,0,0,64.75,8.69Z"/><path d="M73.51,8.23a6,6,0,0,1,4.54,1.71q1.65,1.71,1.65,5.63H69.13l0-.62h6.12a15.85,15.85,0,0,0-.13-3,6.56,6.56,0,0,0-.64-2.19A1.34,1.34,0,0,0,73.28,9c-.66,0-1.22.48-1.68,1.42a13.46,13.46,0,0,0-.85,4.81l.13.23a3.64,3.64,0,0,0-.07.74V17a8.89,8.89,0,0,0,.61,3.63A4.12,4.12,0,0,0,73,22.48a3.58,3.58,0,0,0,1.91.56,5.42,5.42,0,0,0,1.25-.16,4.33,4.33,0,0,0,1.45-.69A5.75,5.75,0,0,0,79,20.64l.56.2a8.19,8.19,0,0,1-1.24,2.52,7.25,7.25,0,0,1-2.22,2,6.21,6.21,0,0,1-3.26.8A8.19,8.19,0,0,1,69,25.3a6.46,6.46,0,0,1-2.72-2.86,11.27,11.27,0,0,1-1-5.12,10.8,10.8,0,0,1,1.08-5.14,7.06,7.06,0,0,1,3-3A9,9,0,0,1,73.51,8.23Z"/><path d="M92.87,8.23a3,3,0,0,1,1.78.48,2.71,2.71,0,0,1,.95,1.22,3.85,3.85,0,0,1,.3,1.46,3,3,0,0,1-.78,2.17,2.64,2.64,0,0,1-2,.83,3,3,0,0,1-2-.61,2.07,2.07,0,0,1-.69-1.63,3,3,0,0,1,.44-1.68A4.38,4.38,0,0,1,92,9.35a1.86,1.86,0,0,0-1,.13A2.7,2.7,0,0,0,90,10a4,4,0,0,0-.79.86,4.55,4.55,0,0,0-.5,1.07,3.59,3.59,0,0,0-.19,1.17v9.28a2.61,2.61,0,0,0,.71,2.14,3.59,3.59,0,0,0,2.26.56v.69l-2.24-.08c-1,0-2-.05-3.06-.05s-1.9,0-2.85.05l-2.13.08v-.69a2,2,0,0,0,1.54-.49,3,3,0,0,0,.44-1.88V12.28a4.29,4.29,0,0,0-.43-2.19,1.66,1.66,0,0,0-1.55-.71V8.69c.71.07,1.39.1,2.05.1,1,0,1.92,0,2.81-.12a20.41,20.41,0,0,0,2.45-.34V11a4.93,4.93,0,0,1,1-1.48,4.58,4.58,0,0,1,1.48-1A4.77,4.77,0,0,1,92.87,8.23Z"/><path d="M103.07,0V22.68a2.88,2.88,0,0,0,.45,1.88,2,2,0,0,0,1.53.49v.69l-1.91-.08c-.86,0-1.73-.05-2.63-.05s-1.78,0-2.69.05l-2,.08v-.69a2,2,0,0,0,1.53-.49,3,3,0,0,0,.44-1.88V4a4.54,4.54,0,0,0-.41-2.19,1.67,1.67,0,0,0-1.56-.71V.36c.7.07,1.38.1,2,.1,1,0,2,0,2.83-.11A22.49,22.49,0,0,0,103.07,0Z"/><path d="M113.74,8.33V22.68a3,3,0,0,0,.44,1.88,2,2,0,0,0,1.54.49v.69l-1.93-.08c-.87,0-1.74-.05-2.62-.05s-1.77,0-2.68.05l-2.06.08v-.69a2,2,0,0,0,1.53-.49,2.88,2.88,0,0,0,.45-1.88V12.28a4.54,4.54,0,0,0-.41-2.19,1.67,1.67,0,0,0-1.57-.71V8.69c.7.07,1.38.1,2,.1q1.48,0,2.82-.12A20.69,20.69,0,0,0,113.74,8.33ZM110.84.1a3.79,3.79,0,0,1,2.42.69,2.42,2.42,0,0,1,.88,2,2.42,2.42,0,0,1-.88,2,3.79,3.79,0,0,1-2.42.69,3.81,3.81,0,0,1-2.42-.69,2.41,2.41,0,0,1-.87-2,2.41,2.41,0,0,1,.87-2A3.81,3.81,0,0,1,110.84.1Z"/><path d="M125.92,0a6.66,6.66,0,0,1,2.16.31,5.29,5.29,0,0,1,1.56.84,2.87,2.87,0,0,1,.84,1,3.38,3.38,0,0,1,.35,1.56,2.43,2.43,0,0,1-.71,1.71,2.37,2.37,0,0,1-1.83.76,2.84,2.84,0,0,1-2-.67,2.35,2.35,0,0,1-.76-1.86,2.73,2.73,0,0,1,.52-1.63,2.79,2.79,0,0,1,1.59-1,.8.8,0,0,0-.37-.28,1.66,1.66,0,0,0-.69-.11,2.27,2.27,0,0,0-1,.19,1.75,1.75,0,0,0-.65.56,2.88,2.88,0,0,0-.48,1.22,14.07,14.07,0,0,0-.15,2.4V8.72h3.52v.66h-3.52v13a2.45,2.45,0,0,0,.79,2.16,3.81,3.81,0,0,0,2.17.54v.69l-2.48-.08c-1.07,0-2.19-.05-3.38-.05-.85,0-1.7,0-2.53.05l-1.88.08v-.69a2,2,0,0,0,1.53-.49,2.88,2.88,0,0,0,.45-1.88V9.38H116.9V8.72H119a20.9,20.9,0,0,1,.21-3.24,7,7,0,0,1,.69-2.2,5.6,5.6,0,0,1,1.3-1.63,6,6,0,0,1,2-1.17A7.63,7.63,0,0,1,125.92,0Z"/><path d="M136.85,8.23a6,6,0,0,1,4.54,1.71Q143,11.65,143,15.57H132.47l0-.62h6.12a15.85,15.85,0,0,0-.13-3,6.8,6.8,0,0,0-.64-2.19A1.34,1.34,0,0,0,136.62,9c-.66,0-1.22.48-1.68,1.42a13.41,13.41,0,0,0-.86,4.81l.14.23a3.64,3.64,0,0,0-.07.74V17a8.89,8.89,0,0,0,.61,3.63,4.12,4.12,0,0,0,1.53,1.9,3.56,3.56,0,0,0,1.91.56,5.42,5.42,0,0,0,1.25-.16,4.42,4.42,0,0,0,1.45-.69,5.91,5.91,0,0,0,1.45-1.55l.56.2a8.42,8.42,0,0,1-1.24,2.52,7.25,7.25,0,0,1-2.22,2,6.23,6.23,0,0,1-3.26.8,8.19,8.19,0,0,1-3.88-.9,6.46,6.46,0,0,1-2.72-2.86,11.27,11.27,0,0,1-1-5.12,10.8,10.8,0,0,1,1.08-5.14,7.06,7.06,0,0,1,3-3A9,9,0,0,1,136.85,8.23Z"/><path d="M164.9,2a8.54,8.54,0,0,1,3.57.64A12.16,12.16,0,0,1,171,4.11c.43.33.77.37,1,.12a3.48,3.48,0,0,0,.48-1.79h.75c0,.85-.07,1.91-.09,3.16s0,2.89,0,4.93h-.75a17.88,17.88,0,0,0-.42-2.7,7.42,7.42,0,0,0-.8-2,5.16,5.16,0,0,0-1.52-1.58,5.9,5.9,0,0,0-1.69-1A5.57,5.57,0,0,0,166,2.9a4.64,4.64,0,0,0-3,1,7.06,7.06,0,0,0-2,2.63,14.23,14.23,0,0,0-1.05,3.63,25.48,25.48,0,0,0-.31,4,24.62,24.62,0,0,0,.32,4,14.17,14.17,0,0,0,1.07,3.6,6.8,6.8,0,0,0,2,2.59,4.87,4.87,0,0,0,3.06,1,5.66,5.66,0,0,0,1.89-.33,5.49,5.49,0,0,0,1.7-1,4.8,4.8,0,0,0,1.95-2.58,20.18,20.18,0,0,0,.75-4.16h.75c0,2.12,0,3.84,0,5.15s.05,2.4.09,3.27h-.75A3.64,3.64,0,0,0,172,24c-.21-.25-.55-.21-1,.09a17.1,17.1,0,0,1-2.59,1.5,8.23,8.23,0,0,1-3.5.64,13.49,13.49,0,0,1-6.31-1.41,10.1,10.1,0,0,1-4.21-4.08,12.91,12.91,0,0,1-1.5-6.42,13,13,0,0,1,1.55-6.46,11.1,11.1,0,0,1,4.26-4.31A12.39,12.39,0,0,1,164.9,2Z"/><path d="M182.87,0V11a4.71,4.71,0,0,1,2.19-2.14,7.44,7.44,0,0,1,3.15-.63,6.2,6.2,0,0,1,2.32.36,3.38,3.38,0,0,1,1.33.92,3.94,3.94,0,0,1,.76,1.62,12.41,12.41,0,0,1,.23,2.66v8.89a3,3,0,0,0,.44,1.88,2,2,0,0,0,1.53.49v.69l-1.92-.08c-.87,0-1.72-.05-2.55-.05s-1.74,0-2.57.05l-1.91.08v-.69a1.48,1.48,0,0,0,1.28-.49,3.44,3.44,0,0,0,.36-1.88V12.21a4.53,4.53,0,0,0-.16-1.3,1.56,1.56,0,0,0-.54-.82,1.84,1.84,0,0,0-1.11-.28,2.75,2.75,0,0,0-1.4.38,2.82,2.82,0,0,0-1,1.08,3.26,3.26,0,0,0-.4,1.63v9.78a3.32,3.32,0,0,0,.38,1.88,1.5,1.5,0,0,0,1.27.49v.69l-1.78-.08c-.79,0-1.6-.05-2.44-.05s-1.77,0-2.68.05l-2.06.08v-.69a2,2,0,0,0,1.53-.49,2.88,2.88,0,0,0,.45-1.88V4a4.54,4.54,0,0,0-.41-2.19,1.67,1.67,0,0,0-1.57-.71V.36c.71.07,1.39.1,2.05.1,1,0,1.95,0,2.83-.11A22.86,22.86,0,0,0,182.87,0Z"/><path d="M207.63,8.23a3,3,0,0,1,1.78.48,2.71,2.71,0,0,1,1,1.22,3.85,3.85,0,0,1,.3,1.46,3,3,0,0,1-.78,2.17,2.64,2.64,0,0,1-2,.83,3,3,0,0,1-2-.61,2.07,2.07,0,0,1-.69-1.63,3,3,0,0,1,.44-1.68,4.38,4.38,0,0,1,1.11-1.12,1.86,1.86,0,0,0-1,.13,2.7,2.7,0,0,0-1,.49,4,4,0,0,0-.79.86,4.21,4.21,0,0,0-.51,1.07,3.86,3.86,0,0,0-.18,1.17v9.28a2.61,2.61,0,0,0,.71,2.14,3.59,3.59,0,0,0,2.26.56v.69L204,25.66c-1,0-2-.05-3.06-.05s-1.9,0-2.85.05l-2.13.08v-.69a2,2,0,0,0,1.54-.49,3,3,0,0,0,.44-1.88V12.28a4.29,4.29,0,0,0-.43-2.19A1.66,1.66,0,0,0,196,9.38V8.69c.71.07,1.39.1,2.05.1,1,0,1.92,0,2.81-.12a20.41,20.41,0,0,0,2.45-.34V11a4.93,4.93,0,0,1,1-1.48,4.58,4.58,0,0,1,1.48-1A4.77,4.77,0,0,1,207.63,8.23Z"/><path d="M218.89,8.33V22.68a3,3,0,0,0,.44,1.88,2,2,0,0,0,1.53.49v.69l-1.92-.08c-.87,0-1.74-.05-2.62-.05s-1.77,0-2.68.05l-2.06.08v-.69a2,2,0,0,0,1.53-.49,2.89,2.89,0,0,0,.44-1.88V12.28a4.43,4.43,0,0,0-.41-2.19,1.64,1.64,0,0,0-1.56-.71V8.69c.7.07,1.38.1,2,.1q1.49,0,2.82-.12A21,21,0,0,0,218.89,8.33ZM216,.1a3.81,3.81,0,0,1,2.42.69,2.41,2.41,0,0,1,.87,2,2.41,2.41,0,0,1-.87,2,4.59,4.59,0,0,1-4.84,0,2.41,2.41,0,0,1-.87-2,2.41,2.41,0,0,1,.87-2A3.81,3.81,0,0,1,216,.1Z"/><path d="M228.9,8.23a8.46,8.46,0,0,1,2.5.33,7.86,7.86,0,0,1,1.54.62c.77.49,1.23.18,1.39-.92H235c-.05.64-.08,1.4-.1,2.29s0,2.08,0,3.57h-.69a9.77,9.77,0,0,0-.58-2.4,5,5,0,0,0-1.3-2A3.24,3.24,0,0,0,230.08,9a2.23,2.23,0,0,0-1.5.52A1.86,1.86,0,0,0,228,11a2.75,2.75,0,0,0,.6,1.75,7.94,7.94,0,0,0,1.53,1.45c.62.46,1.25.95,1.89,1.48a20.79,20.79,0,0,1,1.89,1.59A7.15,7.15,0,0,1,235.23,19a4.65,4.65,0,0,1,.51,2.25,4,4,0,0,1-.89,2.6,5.91,5.91,0,0,1-2.33,1.75,8,8,0,0,1-3.23.62A7.52,7.52,0,0,1,227.4,26a4.92,4.92,0,0,1-1.34-.54l-.87-.4a3.69,3.69,0,0,0-.74-.23.59.59,0,0,0-.56.3,2.68,2.68,0,0,0-.36.85h-.69c0-.7.07-1.55.1-2.56s0-2.35,0-4h.69a11.89,11.89,0,0,0,.74,3.13,5.16,5.16,0,0,0,1.47,2.12,3.24,3.24,0,0,0,2.17.77,2.58,2.58,0,0,0,1-.21,2,2,0,0,0,.79-.67,2.17,2.17,0,0,0,.31-1.19,3.41,3.41,0,0,0-.92-2.42A31,31,0,0,0,227,18.8c-.71-.59-1.36-1.18-2-1.75a7.67,7.67,0,0,1-1.48-1.87,4.56,4.56,0,0,1-.58-2.31,3.87,3.87,0,0,1,.84-2.52A5.39,5.39,0,0,1,226,8.77,7.71,7.71,0,0,1,228.9,8.23Z"/><path d="M244.73,3.32V8.69h3.56v.66h-3.56V22.81A1.79,1.79,0,0,0,245,24a1.1,1.1,0,0,0,.89.35,2,2,0,0,0,1-.33,3.11,3.11,0,0,0,1-1.12l.52.33a5.48,5.48,0,0,1-1.73,2.17,4.66,4.66,0,0,1-2.88.82,6,6,0,0,1-1.92-.28,3.44,3.44,0,0,1-1.4-.83,3.48,3.48,0,0,1-.94-1.8,14.91,14.91,0,0,1-.21-2.78V9.35h-2.64V8.69h2.64V4.58a12.56,12.56,0,0,0,2.84-.3A9.44,9.44,0,0,0,244.73,3.32Z"/><path d="M256.45,8.33V22.68a3,3,0,0,0,.44,1.88,2,2,0,0,0,1.53.49v.69l-1.92-.08c-.87,0-1.74-.05-2.62-.05s-1.77,0-2.68.05l-2.06.08v-.69a2,2,0,0,0,1.53-.49,2.88,2.88,0,0,0,.45-1.88V12.28a4.54,4.54,0,0,0-.41-2.19,1.67,1.67,0,0,0-1.57-.71V8.69c.7.07,1.38.1,2,.1q1.48,0,2.82-.12A20.69,20.69,0,0,0,256.45,8.33ZM253.55.1A3.81,3.81,0,0,1,256,.79a2.41,2.41,0,0,1,.87,2,2.41,2.41,0,0,1-.87,2,4.59,4.59,0,0,1-4.84,0,2.41,2.41,0,0,1-.87-2,2.41,2.41,0,0,1,.87-2A3.81,3.81,0,0,1,253.55.1Z"/><path d="M264.25,26a5,5,0,0,1-2.5-.57,3.61,3.61,0,0,1-1.45-1.53,4.62,4.62,0,0,1-.46-2,3.79,3.79,0,0,1,.64-2.28,4.75,4.75,0,0,1,1.67-1.43,13.07,13.07,0,0,1,2.14-.9l2.13-.71a6,6,0,0,0,1.65-.82,1.49,1.49,0,0,0,.63-1.24V11.72a4.14,4.14,0,0,0-.22-1.37,2.09,2.09,0,0,0-.76-1,2.44,2.44,0,0,0-1.49-.41,4,4,0,0,0-1.15.16,2.63,2.63,0,0,0-1,.53,3,3,0,0,1,1.56,1.09,2.73,2.73,0,0,1,.51,1.61,2.41,2.41,0,0,1-.84,1.93,3,3,0,0,1-2,.7,2.4,2.4,0,0,1-1.93-.79,2.82,2.82,0,0,1-.67-1.91,2.72,2.72,0,0,1,.49-1.66,4.75,4.75,0,0,1,1.45-1.23A7.3,7.3,0,0,1,265,8.49a15.36,15.36,0,0,1,2.86-.26,12.15,12.15,0,0,1,2.85.31,4.63,4.63,0,0,1,2.22,1.24,3.51,3.51,0,0,1,.92,1.84,16.16,16.16,0,0,1,.2,2.77v8.88a3,3,0,0,0,.15,1.14.5.5,0,0,0,.48.31,1,1,0,0,0,.55-.16,6.18,6.18,0,0,0,.53-.36l.36.56a5.16,5.16,0,0,1-1.71.9,7,7,0,0,1-2.14.31,5,5,0,0,1-2.06-.34,2.17,2.17,0,0,1-1.05-.94,3.19,3.19,0,0,1-.35-1.32,5.89,5.89,0,0,1-1.81,1.9A4.9,4.9,0,0,1,264.25,26ZM267,23.6a2,2,0,0,0,.94-.21,2.24,2.24,0,0,0,.78-.74V15.8a3.57,3.57,0,0,1-.71.87c-.3.28-.61.55-.94.83a8.82,8.82,0,0,0-.94.9,4,4,0,0,0-.72,1.17,4.18,4.18,0,0,0-.28,1.63,2.63,2.63,0,0,0,.52,1.84A1.77,1.77,0,0,0,267,23.6Z"/><path d="M289.63,8.23a6.17,6.17,0,0,1,2.32.36,3.42,3.42,0,0,1,1.34.92,3.94,3.94,0,0,1,.77,1.62,11.62,11.62,0,0,1,.25,2.66v8.89a3,3,0,0,0,.44,1.88,2,2,0,0,0,1.53.49v.69l-2-.08c-.86,0-1.7-.05-2.52-.05s-1.76,0-2.6.05l-1.87.08v-.69a1.48,1.48,0,0,0,1.28-.49,3.44,3.44,0,0,0,.36-1.88V12.21a4.53,4.53,0,0,0-.16-1.3,1.53,1.53,0,0,0-.56-.82,1.89,1.89,0,0,0-1.12-.28,2.59,2.59,0,0,0-1.4.4,2.78,2.78,0,0,0-1,1.1,3.34,3.34,0,0,0-.38,1.59v9.78a3.44,3.44,0,0,0,.36,1.88,1.51,1.51,0,0,0,1.29.49v.69l-1.81-.08c-.79,0-1.59-.05-2.41-.05s-1.8,0-2.7.05l-2,.08v-.69a2,2,0,0,0,1.53-.49,2.88,2.88,0,0,0,.45-1.88V12.28a4.29,4.29,0,0,0-.43-2.19A1.66,1.66,0,0,0,277,9.38V8.69c.71.07,1.39.1,2,.1q1.49,0,2.82-.12a20.41,20.41,0,0,0,2.45-.34V11a4.57,4.57,0,0,1,2.16-2.14A7.43,7.43,0,0,1,289.63,8.23Z"/><path d="M22,41.94c-.08,1.06-.14,2.06-.18,3s-.05,1.71-.05,2.24,0,.93,0,1.35,0,.78.06,1.08h-.75a13.66,13.66,0,0,0-1.37-4.16,5.44,5.44,0,0,0-2-2.16,5.13,5.13,0,0,0-2.48-.62h-.76a4.69,4.69,0,0,0-1.38.15.89.89,0,0,0-.61.61,5,5,0,0,0-.15,1.44V61.5a5.65,5.65,0,0,0,.26,1.94,1.42,1.42,0,0,0,1.06.85,10.2,10.2,0,0,0,2.27.23v.73l-2.8-.07c-1.14,0-2.34,0-3.59,0q-1.49,0-2.91,0L4,65.25v-.66a5.41,5.41,0,0,0,1.53-.26,1.15,1.15,0,0,0,.69-.79,6.59,6.59,0,0,0,.18-1.78V45.43a6.47,6.47,0,0,0-.18-1.79,1.17,1.17,0,0,0-.69-.79A4.31,4.31,0,0,0,4,42.6v-.66L7,42l3.11,0c1,0,2,0,2.86,0h2.17c1,0,2.16,0,3.44,0S21,42,22,41.94ZM17.13,53.27v.65H11.34v-.65ZM18,48.92c-.08,1.25-.12,2.21-.11,2.86s0,1.27,0,1.81,0,1.16,0,1.82.08,1.61.16,2.86h-.75a7.31,7.31,0,0,0-.73-2.17,4.29,4.29,0,0,0-1.4-1.58,3.77,3.77,0,0,0-2.19-.6v-.65a3.27,3.27,0,0,0,1.68-.42A4.1,4.1,0,0,0,16,51.78a6.49,6.49,0,0,0,.84-1.41,7.1,7.1,0,0,0,.46-1.45Z"/><path d="M27.47,65.48A4.84,4.84,0,0,1,25,64.9a3.5,3.5,0,0,1-1.45-1.53,4.55,4.55,0,0,1-.46-2,3.76,3.76,0,0,1,.64-2.27,4.75,4.75,0,0,1,1.67-1.43,13,13,0,0,1,2.13-.91c.75-.24,1.46-.47,2.14-.71a5.77,5.77,0,0,0,1.65-.82A1.48,1.48,0,0,0,31.92,54V51.22a4.35,4.35,0,0,0-.22-1.36,2.05,2.05,0,0,0-.76-1,2.38,2.38,0,0,0-1.49-.42,4.12,4.12,0,0,0-1.16.17,2.64,2.64,0,0,0-1,.52,3.12,3.12,0,0,1,1.56,1.09,2.73,2.73,0,0,1,.51,1.61,2.38,2.38,0,0,1-.84,1.93,3,3,0,0,1-2,.71,2.4,2.4,0,0,1-1.93-.79A2.86,2.86,0,0,1,24,51.72a2.72,2.72,0,0,1,.49-1.66,4.79,4.79,0,0,1,1.45-1.24A7.3,7.3,0,0,1,28.2,48a14.56,14.56,0,0,1,2.86-.26,12.15,12.15,0,0,1,2.85.31,4.69,4.69,0,0,1,2.22,1.23,3.54,3.54,0,0,1,.92,1.85,16,16,0,0,1,.2,2.76v8.89a3,3,0,0,0,.15,1.14.5.5,0,0,0,.48.31,1,1,0,0,0,.55-.17A6.18,6.18,0,0,0,39,63.7l.36.56a5,5,0,0,1-1.71.91,7,7,0,0,1-2.14.31,5,5,0,0,1-2.06-.35,2.2,2.2,0,0,1-1-.93A3.23,3.23,0,0,1,32,62.88a5.75,5.75,0,0,1-1.81,1.89A4.9,4.9,0,0,1,27.47,65.48Zm2.73-2.37a2,2,0,0,0,.94-.21,2.28,2.28,0,0,0,.78-.75V55.31a4,4,0,0,1-.71.87c-.3.27-.61.55-.94.82a10.06,10.06,0,0,0-.94.91,4,4,0,0,0-.72,1.17,4.18,4.18,0,0,0-.28,1.63,2.64,2.64,0,0,0,.52,1.84A1.81,1.81,0,0,0,30.2,63.11Z"/><path d="M47.55,47.83V62.19A2.85,2.85,0,0,0,48,64.06a2,2,0,0,0,1.53.5v.69l-1.93-.08c-.86,0-1.74,0-2.61,0s-1.78,0-2.69,0l-2.06.08v-.69a2,2,0,0,0,1.54-.5,2.92,2.92,0,0,0,.44-1.87V51.78a4.53,4.53,0,0,0-.41-2.18,1.65,1.65,0,0,0-1.57-.71V48.2c.71.06,1.39.09,2,.09,1,0,1.92,0,2.81-.11A20.32,20.32,0,0,0,47.55,47.83ZM44.66,39.6a3.83,3.83,0,0,1,2.42.69,2.44,2.44,0,0,1,.87,2,2.41,2.41,0,0,1-.87,2,3.83,3.83,0,0,1-2.42.69,3.79,3.79,0,0,1-2.42-.69,2.39,2.39,0,0,1-.88-2,2.42,2.42,0,0,1,.88-2A3.79,3.79,0,0,1,44.66,39.6Z"/><path d="M58,42.83V48.2h3.56v.65H58V62.32a1.79,1.79,0,0,0,.3,1.17,1.1,1.1,0,0,0,.89.34,2,2,0,0,0,1-.33,3,3,0,0,0,1-1.12l.53.33a5.69,5.69,0,0,1-1.73,2.18,4.7,4.7,0,0,1-2.88.82,6,6,0,0,1-1.93-.28,3.57,3.57,0,0,1-1.4-.84,3.42,3.42,0,0,1-.94-1.79A15,15,0,0,1,52.69,60V48.85H50.06V48.2h2.63V44.08a13.35,13.35,0,0,0,2.85-.29A9.51,9.51,0,0,0,58,42.83Z"/><path d="M69.58,39.5v11a4.71,4.71,0,0,1,2.19-2.14,7.4,7.4,0,0,1,3.14-.62,6.17,6.17,0,0,1,2.32.36,3.31,3.31,0,0,1,1.33.92,3.66,3.66,0,0,1,.76,1.61,12.51,12.51,0,0,1,.23,2.67v8.89A2.85,2.85,0,0,0,80,64.06a2,2,0,0,0,1.53.5v.69l-1.93-.08c-.87,0-1.72,0-2.55,0s-1.73,0-2.57,0l-1.91.08v-.69a1.51,1.51,0,0,0,1.29-.5,3.4,3.4,0,0,0,.36-1.87V51.72a4.46,4.46,0,0,0-.17-1.3,1.52,1.52,0,0,0-.54-.82,1.81,1.81,0,0,0-1.1-.28,2.72,2.72,0,0,0-1.4.37,3,3,0,0,0-1,1.09,3.33,3.33,0,0,0-.39,1.63v9.78A3.2,3.2,0,0,0,70,64.06a1.48,1.48,0,0,0,1.26.5v.69l-1.77-.08c-.79,0-1.61,0-2.44,0s-1.77,0-2.68,0l-2.06.08v-.69a2,2,0,0,0,1.53-.5,2.85,2.85,0,0,0,.44-1.87V43.46a4.43,4.43,0,0,0-.41-2.19,1.63,1.63,0,0,0-1.56-.71v-.69c.7.06,1.38.1,2,.1,1,0,2,0,2.83-.12A20.73,20.73,0,0,0,69.58,39.5Z"/><path d="M101.21,41.94v.66a4.42,4.42,0,0,0-1.54.25,1.12,1.12,0,0,0-.7.79,7.09,7.09,0,0,0-.16,1.79V61.76A6.59,6.59,0,0,0,99,63.54a1.15,1.15,0,0,0,.69.79,5.41,5.41,0,0,0,1.53.26v.66c-.61,0-1.4-.07-2.35-.08l-2.88,0-3.15,0c-1,0-1.77,0-2.38.08v-.66A5.41,5.41,0,0,0,92,64.33a1.15,1.15,0,0,0,.69-.79,6.59,6.59,0,0,0,.18-1.78V45.43a6.47,6.47,0,0,0-.18-1.79,1.17,1.17,0,0,0-.69-.79,4.31,4.31,0,0,0-1.53-.25v-.66l2.38.07Q94.3,42,96,42q1.44,0,2.88,0Z"/><path d="M115.6,47.74a6.2,6.2,0,0,1,2.32.36,3.31,3.31,0,0,1,1.33.92,4,4,0,0,1,.78,1.61,11.8,11.8,0,0,1,.24,2.67v8.89a2.85,2.85,0,0,0,.45,1.87,2,2,0,0,0,1.53.5v.69l-2-.08c-.87,0-1.71,0-2.52,0s-1.77,0-2.6,0l-1.88.08v-.69a1.5,1.5,0,0,0,1.29-.5,3.4,3.4,0,0,0,.36-1.87V51.72a4.48,4.48,0,0,0-.16-1.3,1.5,1.5,0,0,0-.56-.82,1.91,1.91,0,0,0-1.12-.28,2.64,2.64,0,0,0-1.4.39,2.78,2.78,0,0,0-1,1.1,3.29,3.29,0,0,0-.38,1.6v9.78a3.4,3.4,0,0,0,.36,1.87,1.5,1.5,0,0,0,1.29.5v.69l-1.82-.08c-.79,0-1.59,0-2.4,0s-1.8,0-2.7,0l-2,.08v-.69a2,2,0,0,0,1.53-.5,2.85,2.85,0,0,0,.45-1.87V51.78a4.38,4.38,0,0,0-.43-2.18,1.65,1.65,0,0,0-1.55-.71V48.2q1,.09,2,.09c1,0,1.93,0,2.82-.11a20.61,20.61,0,0,0,2.45-.35V50.5a4.57,4.57,0,0,1,2.16-2.14A7.4,7.4,0,0,1,115.6,47.74Z"/><path d="M130.51,42.83V48.2h3.56v.65h-3.56V62.32a1.79,1.79,0,0,0,.3,1.17,1.09,1.09,0,0,0,.89.34,2,2,0,0,0,1-.33,3,3,0,0,0,1-1.12l.52.33a5.58,5.58,0,0,1-1.72,2.18,4.7,4.7,0,0,1-2.88.82,6,6,0,0,1-1.93-.28,3.57,3.57,0,0,1-1.4-.84,3.42,3.42,0,0,1-.94-1.79,15,15,0,0,1-.21-2.79V48.85h-2.64V48.2h2.64V44.08a13.35,13.35,0,0,0,2.85-.29A9.51,9.51,0,0,0,130.51,42.83Z"/><path d="M143.38,47.74a6,6,0,0,1,4.55,1.71c1.09,1.14,1.64,3,1.64,5.63H139l0-.63h6.12a15.89,15.89,0,0,0-.13-3,6.56,6.56,0,0,0-.64-2.19,1.3,1.3,0,0,0-1.17-.82c-.66,0-1.22.47-1.68,1.42a13.4,13.4,0,0,0-.85,4.8l.13.23a4.53,4.53,0,0,0-.07.74v.81a9,9,0,0,0,.61,3.62A4.16,4.16,0,0,0,142.82,62a3.67,3.67,0,0,0,1.91.56,4.91,4.91,0,0,0,1.25-.17,4.06,4.06,0,0,0,1.45-.69,5.7,5.7,0,0,0,1.45-1.54l.56.19a8.17,8.17,0,0,1-1.23,2.52,7.15,7.15,0,0,1-2.23,2,6.21,6.21,0,0,1-3.26.81,8.11,8.11,0,0,1-3.88-.91,6.41,6.41,0,0,1-2.72-2.86,11.37,11.37,0,0,1-1-5.12,10.63,10.63,0,0,1,1.09-5.13,6.92,6.92,0,0,1,3-3A9,9,0,0,1,143.38,47.74Z"/><path d="M162.74,47.74a3,3,0,0,1,1.78.47,2.7,2.7,0,0,1,.95,1.22,3.86,3.86,0,0,1,.3,1.47,3.06,3.06,0,0,1-.77,2.17,2.65,2.65,0,0,1-2,.82,2.93,2.93,0,0,1-2-.61,2.06,2.06,0,0,1-.69-1.63,2.92,2.92,0,0,1,.45-1.68,4.33,4.33,0,0,1,1.1-1.12,1.77,1.77,0,0,0-1,.14,2.45,2.45,0,0,0-1,.49,3.6,3.6,0,0,0-.79.86,4.06,4.06,0,0,0-.51,1.07,3.85,3.85,0,0,0-.18,1.16v9.29a2.63,2.63,0,0,0,.7,2.14,3.7,3.7,0,0,0,2.26.56v.69l-2.24-.08c-1,0-2,0-3.06,0s-1.89,0-2.85,0l-2.12.08v-.69a2,2,0,0,0,1.53-.5,2.92,2.92,0,0,0,.44-1.87V51.78a4.27,4.27,0,0,0-.43-2.18,1.63,1.63,0,0,0-1.54-.71V48.2q1,.09,2,.09c1,0,1.92,0,2.81-.11a20.79,20.79,0,0,0,2.46-.35v2.7a4.85,4.85,0,0,1,1-1.48,4.61,4.61,0,0,1,3.31-1.31Z"/><path d="M179.3,47.74a6.17,6.17,0,0,1,2.32.36A3.31,3.31,0,0,1,183,49a3.91,3.91,0,0,1,.78,1.61A11.8,11.8,0,0,1,184,53.3v8.89a2.85,2.85,0,0,0,.45,1.87,2,2,0,0,0,1.53.5v.69l-2-.08c-.87,0-1.7,0-2.52,0s-1.76,0-2.6,0l-1.87.08v-.69a1.49,1.49,0,0,0,1.28-.5,3.4,3.4,0,0,0,.36-1.87V51.72a4.48,4.48,0,0,0-.16-1.3,1.5,1.5,0,0,0-.56-.82,1.91,1.91,0,0,0-1.12-.28,2.64,2.64,0,0,0-1.4.39,2.78,2.78,0,0,0-1,1.1,3.4,3.4,0,0,0-.38,1.6v9.78a3.4,3.4,0,0,0,.36,1.87,1.5,1.5,0,0,0,1.29.5v.69l-1.81-.08c-.8,0-1.6,0-2.41,0s-1.8,0-2.7,0l-2,.08v-.69a2,2,0,0,0,1.53-.5,2.85,2.85,0,0,0,.45-1.87V51.78a4.38,4.38,0,0,0-.43-2.18,1.65,1.65,0,0,0-1.55-.71V48.2q1,.09,2,.09c1,0,1.93,0,2.82-.11a20.61,20.61,0,0,0,2.45-.35V50.5a4.61,4.61,0,0,1,2.16-2.14A7.43,7.43,0,0,1,179.3,47.74Z"/><path d="M191.55,65.48A4.88,4.88,0,0,1,189,64.9a3.48,3.48,0,0,1-1.44-1.53,4.56,4.56,0,0,1-.47-2,3.77,3.77,0,0,1,.65-2.27,4.72,4.72,0,0,1,1.66-1.43,13.1,13.1,0,0,1,2.14-.91c.74-.24,1.46-.47,2.14-.71a5.57,5.57,0,0,0,1.64-.82A1.48,1.48,0,0,0,196,54V51.22a4.35,4.35,0,0,0-.21-1.36,2.17,2.17,0,0,0-.76-1,2.39,2.39,0,0,0-1.5-.42,4.05,4.05,0,0,0-1.15.17,2.77,2.77,0,0,0-1,.52A3.2,3.2,0,0,1,193,50.17a2.73,2.73,0,0,1,.51,1.61,2.38,2.38,0,0,1-.84,1.93,3,3,0,0,1-2,.71,2.38,2.38,0,0,1-1.92-.79,2.86,2.86,0,0,1-.68-1.91,2.73,2.73,0,0,1,.5-1.66A4.79,4.79,0,0,1,190,48.82a7.15,7.15,0,0,1,2.3-.82,14.56,14.56,0,0,1,2.86-.26,12.09,12.09,0,0,1,2.85.31,4.6,4.6,0,0,1,2.22,1.23,3.55,3.55,0,0,1,.93,1.85,16.08,16.08,0,0,1,.19,2.76v8.89a3,3,0,0,0,.15,1.14.5.5,0,0,0,.48.31,1,1,0,0,0,.56-.17l.53-.36.36.56a5.19,5.19,0,0,1-1.71.91,7.05,7.05,0,0,1-2.14.31,5,5,0,0,1-2.06-.35,2.18,2.18,0,0,1-1.06-.93,3.22,3.22,0,0,1-.34-1.32,5.86,5.86,0,0,1-1.81,1.89A5,5,0,0,1,191.55,65.48Zm2.73-2.37a2.06,2.06,0,0,0,.94-.21,2.26,2.26,0,0,0,.77-.75V55.31a3.77,3.77,0,0,1-.71.87c-.29.27-.61.55-.94.82a8.87,8.87,0,0,0-.93.91,4.07,4.07,0,0,0-.73,1.17,4.37,4.37,0,0,0-.28,1.63,2.64,2.64,0,0,0,.53,1.84A1.78,1.78,0,0,0,194.28,63.11Z"/><path d="M211.46,42.83V48.2H215v.65h-3.56V62.32a1.79,1.79,0,0,0,.3,1.17,1.1,1.1,0,0,0,.89.34,2,2,0,0,0,1-.33,3,3,0,0,0,1-1.12l.53.33a5.69,5.69,0,0,1-1.73,2.18,4.7,4.7,0,0,1-2.88.82,6,6,0,0,1-1.93-.28,3.57,3.57,0,0,1-1.4-.84,3.49,3.49,0,0,1-.94-1.79,15,15,0,0,1-.21-2.79V48.85H203.5V48.2h2.63V44.08a13.35,13.35,0,0,0,2.85-.29A9.51,9.51,0,0,0,211.46,42.83Z"/><path d="M223.18,47.83V62.19a2.85,2.85,0,0,0,.45,1.87,2,2,0,0,0,1.53.5v.69l-1.93-.08c-.87,0-1.74,0-2.62,0s-1.77,0-2.68,0l-2.06.08v-.69a2,2,0,0,0,1.53-.5,2.85,2.85,0,0,0,.45-1.87V51.78a4.53,4.53,0,0,0-.41-2.18,1.65,1.65,0,0,0-1.57-.71V48.2q1.06.09,2,.09c1,0,1.93,0,2.82-.11A20.32,20.32,0,0,0,223.18,47.83Zm-2.89-8.23a3.78,3.78,0,0,1,2.41.69,2.42,2.42,0,0,1,.88,2,2.39,2.39,0,0,1-.88,2,4.57,4.57,0,0,1-4.83,0,2.39,2.39,0,0,1-.88-2,2.42,2.42,0,0,1,.88-2A3.79,3.79,0,0,1,220.29,39.6Z"/><path d="M235.13,47.74a10.11,10.11,0,0,1,4.33.87,6.2,6.2,0,0,1,2.9,2.85,11.35,11.35,0,0,1,1,5.26,11.4,11.4,0,0,1-1,5.27,6.2,6.2,0,0,1-2.9,2.85,11.11,11.11,0,0,1-8.62,0A6.33,6.33,0,0,1,227.92,62a11.26,11.26,0,0,1-1-5.27,11.22,11.22,0,0,1,1-5.26,6.33,6.33,0,0,1,2.92-2.85A10,10,0,0,1,235.13,47.74Zm0,.65c-.77,0-1.41.66-1.92,2a18.73,18.73,0,0,0-.78,6.37,18.69,18.69,0,0,0,.78,6.37c.51,1.31,1.15,2,1.92,2s1.44-.65,1.94-2a19.06,19.06,0,0,0,.76-6.37,19.1,19.1,0,0,0-.76-6.37C236.57,49.05,235.92,48.39,235.13,48.39Z"/><path d="M257.88,47.74a6.17,6.17,0,0,1,2.32.36,3.31,3.31,0,0,1,1.33.92,3.91,3.91,0,0,1,.78,1.61,11.8,11.8,0,0,1,.24,2.67v8.89a2.85,2.85,0,0,0,.45,1.87,2,2,0,0,0,1.53.5v.69l-2-.08c-.87,0-1.7,0-2.52,0s-1.76,0-2.6,0l-1.87.08v-.69a1.49,1.49,0,0,0,1.28-.5,3.4,3.4,0,0,0,.36-1.87V51.72a4.48,4.48,0,0,0-.16-1.3,1.5,1.5,0,0,0-.56-.82,1.91,1.91,0,0,0-1.12-.28,2.64,2.64,0,0,0-1.4.39,2.78,2.78,0,0,0-1,1.1,3.4,3.4,0,0,0-.38,1.6v9.78a3.4,3.4,0,0,0,.36,1.87,1.5,1.5,0,0,0,1.29.5v.69l-1.81-.08c-.79,0-1.6,0-2.41,0s-1.8,0-2.7,0l-2,.08v-.69a2,2,0,0,0,1.53-.5,2.85,2.85,0,0,0,.45-1.87V51.78a4.38,4.38,0,0,0-.43-2.18,1.65,1.65,0,0,0-1.55-.71V48.2q1,.09,2,.09c1,0,1.93,0,2.82-.11a20.61,20.61,0,0,0,2.45-.35V50.5a4.61,4.61,0,0,1,2.16-2.14A7.43,7.43,0,0,1,257.88,47.74Z"/><path d="M270.13,65.48a4.88,4.88,0,0,1-2.51-.58,3.48,3.48,0,0,1-1.44-1.53,4.56,4.56,0,0,1-.47-2,3.77,3.77,0,0,1,.65-2.27A4.72,4.72,0,0,1,268,57.63a13.1,13.1,0,0,1,2.14-.91c.74-.24,1.46-.47,2.14-.71a5.57,5.57,0,0,0,1.64-.82,1.48,1.48,0,0,0,.63-1.23V51.22a4.35,4.35,0,0,0-.21-1.36,2.17,2.17,0,0,0-.76-1,2.39,2.39,0,0,0-1.5-.42,4.05,4.05,0,0,0-1.15.17,2.77,2.77,0,0,0-1,.52,3.2,3.2,0,0,1,1.57,1.09,2.73,2.73,0,0,1,.51,1.61,2.38,2.38,0,0,1-.84,1.93,3,3,0,0,1-2,.71,2.38,2.38,0,0,1-1.92-.79,2.86,2.86,0,0,1-.68-1.91,2.73,2.73,0,0,1,.5-1.66,4.79,4.79,0,0,1,1.45-1.24,7.15,7.15,0,0,1,2.3-.82,14.56,14.56,0,0,1,2.86-.26,12.09,12.09,0,0,1,2.85.31,4.6,4.6,0,0,1,2.22,1.23,3.55,3.55,0,0,1,.93,1.85,16.08,16.08,0,0,1,.19,2.76v8.89a3,3,0,0,0,.15,1.14.5.5,0,0,0,.48.31,1,1,0,0,0,.56-.17l.53-.36.36.56a5.19,5.19,0,0,1-1.71.91,7.05,7.05,0,0,1-2.14.31,5,5,0,0,1-2.06-.35A2.18,2.18,0,0,1,275,64.2a3.22,3.22,0,0,1-.34-1.32,5.86,5.86,0,0,1-1.81,1.89A5,5,0,0,1,270.13,65.48Zm2.73-2.37a2.06,2.06,0,0,0,.94-.21,2.26,2.26,0,0,0,.77-.75V55.31a3.77,3.77,0,0,1-.71.87c-.29.27-.61.55-.94.82a8.87,8.87,0,0,0-.93.91,4.07,4.07,0,0,0-.73,1.17,4.37,4.37,0,0,0-.28,1.63,2.64,2.64,0,0,0,.53,1.84A1.78,1.78,0,0,0,272.86,63.11Z"/><path d="M290.08,39.5V62.19a2.85,2.85,0,0,0,.44,1.87,2,2,0,0,0,1.53.5v.69l-1.91-.08c-.85,0-1.73,0-2.63,0s-1.77,0-2.69,0l-2.05.08v-.69a2,2,0,0,0,1.53-.5,2.92,2.92,0,0,0,.44-1.87V43.46a4.43,4.43,0,0,0-.41-2.19,1.63,1.63,0,0,0-1.56-.71v-.69c.7.06,1.38.1,2,.1,1,0,1.95,0,2.83-.12A20.73,20.73,0,0,0,290.08,39.5Z"/></g></g></svg>